<?xml version="1.0" encoding="UTF-8" standalone="no"?>
<!-- Created with Inkscape (http://www.inkscape.org/) -->
<svg
   xmlns:svg="http://www.w3.org/2000/svg"
   xmlns="http://www.w3.org/2000/svg"
   version="1.0"
   width="1605.3929"
   height="920.39301"
   id="svg2160">
  <defs
     id="defs2162" />
  <g
     id="layer2">
    <g
       id="g6140">
      <rect
         width="1605"
         height="920"
         x="1.666667"
         y="1.6666663"
         style="opacity:1;color:#000000;fill:#3a5e90;fill-opacity:1;fill-rule:nonzero;stroke:#f9f9f9;stroke-width:0.39322585;stroke-linecap:butt;stroke-linejoin:miter;marker:none;marker-start:none;marker-mid:none;marker-end:none;stroke-miterlimit:4;stroke-dasharray:none;stroke-dashoffset:0;stroke-opacity:1;visibility:visible;display:inline;overflow:visible"
         id="rect5161" />
      <path
         d="M 204.99999,338.33332 L 153.21536,298.69592 L 101.14016,337.95079 L 122.83524,276.45205 L 69.40951,239.05601 L 134.60244,240.6851 L 153.65873,178.3182 L 172.25509,240.82378 L 237.45825,239.67495 L 183.75851,276.67643 L 204.99999,338.33332 z "
         transform="translate(75,86.666663)"
         style="opacity:1;color:#000000;fill:#f9f9f9;fill-opacity:1;fill-rule:nonzero;stroke:#f9f9f9;stroke-width:0.39322585;stroke-linecap:butt;stroke-linejoin:miter;marker:none;marker-start:none;marker-mid:none;marker-end:none;stroke-miterlimit:4;stroke-dasharray:none;stroke-dashoffset:0;stroke-opacity:1;visibility:visible;display:inline;overflow:visible"
         id="path5155" />
      <path
         d="M 204.99999,338.33332 L 153.21536,298.69592 L 101.14016,337.95079 L 122.83524,276.45205 L 69.40951,239.05601 L 134.60244,240.6851 L 153.65873,178.3182 L 172.25509,240.82378 L 237.45825,239.67495 L 183.75851,276.67643 L 204.99999,338.33332 z "
         transform="translate(304.89946,-26.659096)"
         style="opacity:1;color:#000000;fill:#f9f9f9;fill-opacity:1;fill-rule:nonzero;stroke:#f9f9f9;stroke-width:0.39322585;stroke-linecap:butt;stroke-linejoin:miter;marker:none;marker-start:none;marker-mid:none;marker-end:none;stroke-miterlimit:4;stroke-dasharray:none;stroke-dashoffset:0;stroke-opacity:1;visibility:visible;display:inline;overflow:visible"
         id="path5157" />
      <path
         d="M 204.99999,338.33332 L 153.21536,298.69592 L 101.14016,337.95079 L 122.83524,276.45205 L 69.40951,239.05601 L 134.60244,240.6851 L 153.65873,178.3182 L 172.25509,240.82378 L 237.45825,239.67495 L 183.75851,276.67643 L 204.99999,338.33332 z "
         transform="translate(248.23279,221.67424)"
         style="opacity:1;color:#000000;fill:#f9f9f9;fill-opacity:1;fill-rule:nonzero;stroke:#f9f9f9;stroke-width:0.39322585;stroke-linecap:butt;stroke-linejoin:miter;marker:none;marker-start:none;marker-mid:none;marker-end:none;stroke-miterlimit:4;stroke-dasharray:none;stroke-dashoffset:0;stroke-opacity:1;visibility:visible;display:inline;overflow:visible"
         id="path5159" />
    </g>
  </g>
</svg>
