<?xml version="1.0" encoding="utf-8"?>
<!-- Generator: Adobe Illustrator 25.0.0, SVG Export Plug-In . SVG Version: 6.00 Build 0)  -->
<svg version="1.1" id="Layer_1" xmlns="http://www.w3.org/2000/svg" xmlns:xlink="http://www.w3.org/1999/xlink" x="0px" y="0px"
	 viewBox="0 0 979.3 1006.8" style="enable-background:new 0 0 979.3 1006.8;" xml:space="preserve">
<style type="text/css">
	.st0{fill:url(#SVGID_1_);}
</style>
<radialGradient id="SVGID_1_" cx="491.3044" cy="504.8261" r="489.4492" gradientTransform="matrix(1 0 0 -1 0 1007.6522)" gradientUnits="userSpaceOnUse">
	<stop  offset="0" style="stop-color:#6E6F72"/>
	<stop  offset="1" style="stop-color:#424143"/>
</radialGradient>
<path class="st0" d="M966.6,892.5c-1.3,59.1-53.9,106.4-132.7,106.4c-52.6,0-164.3-5.3-227.3-2.6c-9.2,1.3-53.9,3.9-103.8,3.9
	c-51.3-1.3-109.1-2.6-148.5-3.9c-85.4-3.9-210.3,0-243.1,2.6c-39.4,2.6-92-21-92-60.5c0-30.2-9.2-90.7-6.6-138s7.9-118.3,5.3-169.5
	c-1.3-23.7,31.5-47.3,52.6-47.3s141.9,35.5,159,43.4c30.2,13.1,43.4,13.1,51.3,0c6.6-10.5,7.9-25-22.3-47.3
	c-74.9-57.8-123.5-120.9-169.5-156.4C16.5,366.8,9.9,327.4,9.9,222.3c0-32.9,9.2-72.3,9.2-118.3S84.9,9.4,137.4,12
	c43.4,2.6,197.1-1.3,525.7-6.6c39.4,0,118.3,6.6,176.1,5.3c60.5-1.3,126.2,40.7,126.2,80.2s3.9,72.3,6.6,118.3
	c2.6,52.6-2.6,131.4,0,164.3s-32.9,61.8-52.6,61.8c-19.7,0-157.7-35.5-197.1-55.2c-22.3-11.8-39.4-11.8-47.3,1.3
	c-9.2,14.5-6.6,26.3,14.5,38.1c46,26.3,190.6,138,227.3,160.3c31.5,19.7,56.5,76.2,55.2,109.1C970.6,720.3,966.6,866.2,966.6,892.5z
	 M929.9,222.3c0-39.4-10.5-86.7-10.5-118.3c0-27.6-40.7-52.6-85.4-52.6c-30.2,0-138-6.6-170.8-6.6c-285.2,0-440.2,7.9-499.4,6.6
	c-69.7-1.3-98.6,30.2-98.6,59.1c0,34.2-10.5,78.8-10.5,131.4c0,57.8,3.9,101.2,60.5,145.9c55.2,43.4,120.9,127.5,186.6,176.1
	c39.4,28.9,27.6,52.6,10.5,85.4c-17.1,32.9-44.7,36.8-69.7,26.3c-65.7-26.3-105.1-35.5-138-40.7c-26.3-3.9-39.4,14.5-39.4,47.3
	c0,27.6-6.6,68.3-6.6,135.4c0,42.1,6.6,85.4,6.6,101.2c0,19.7,15.8,39.4,52.6,39.4c34.2,0,163-6.6,223.4-2.6
	c71,5.3,244.4,9.2,265.5,7.9c52.6-3.9,199.8-3.9,214.2-5.3c65.7-6.6,98.6-32.9,98.6-72.3c0-26.3,5.3-148.5,6.6-177.4
	c1.3-28.9-6.6-77.5-52.6-105.1c-56.5-34.2-144.6-111.7-190.6-140.6c-61.8-39.4-77.5-61.8-39.4-102.5c28.9-31.5,57.8-28.9,78.8-19.7
	c59.1,26.3,160.3,52.6,177.4,52.6s35.5-18.4,32.9-39.4C929.9,332.6,929.9,261.7,929.9,222.3z M211,728.2c-7.9-6.6-10.5-3.9-21,2.6
	c-10.5,6.6-48.6,57.8-57.8,64.4c-9.2,6.6-5.3,10.5,2.6,17.1c7.9,6.6,0,10.5-13.1,22.3c-13.1,11.8-13.1,6.6-28.9-5.3
	c-15.8-11.8-5.3-51.3,6.6-57.8c11.8-6.6,63.1-69.7,78.8-85.4c9.2-9.2,36.8-5.3,53.9,11.8c17.1,17.1,13.1,19.7,3.9,30.2
	C226.8,738.7,218.9,734.8,211,728.2z M126.9,703.2c-13.1,10.5-18.4,11.8-30.2-3.9c-9.2-13.1-10.5-18.4-1.3-27.6
	c14.5-14.5,22.3-13.1,36.8,0C146.6,684.8,140,692.7,126.9,703.2z M141.4,921.4c-13.1,13.1-26.3,6.6-38.1-3.9
	c-11.8-10.5-7.9-21,5.3-27.6c13.1-6.6,39.4-42.1,53.9-52.6c14.5-10.5,14.5-10.5,27.6,2.6c9.2,9.2,15.8,17.1,3.9,28.9L141.4,921.4z
	 M861.5,729.5c-11.8,1.3-48.6,7.9-63.1,6.6c-14.5-1.3-14.5,7.9-5.3,14.5c9.2,6.6,48.6,35.5,51.3,48.6c2.6,13.1,28.9,77.5,32.9,93.3
	S854.9,928,840.5,928c-14.5,0-74.9-9.2-90.7-9.2s-30.2-11.8-47.3-27.6c-14.5-13.1-23.7-14.5-28.9,2.6c-5.3,17.1-13.1,34.2-31.5,34.2
	s-153.8,0-165.6,1.3c-11.8,1.3-23.7-5.3-34.2-10.5s-1.3-11.8,7.9-21c9.2-9.2,11.8-13.1,21-9.2c9.2,3.9,13.1,2.6,23.7,2.6
	c22.3,1.3,105.1,0,119.6,0c14.5,0,17.1,0,22.3-10.5c5.3-10.5,7.9-21,10.5-34.2s28.9-17.1,39.4-11.8c10.5,5.3,44.7,32.9,57.8,40.7
	c13.1,7.9,60.5,11.8,74.9,11.8c14.5,0,14.5-5.3,10.5-14.5c-3.9-9.2-19.7-47.3-26.3-60.5c-6.6-13.1-63.1-55.2-73.6-65.7
	c-10.5-10.5,1.3-42.1,15.8-43.4c14.5-1.3,65.7-3.9,78.8-3.9c11.8,0,22.3-17.1,10.5-23.7c-11.8-6.6-40.7-26.3-56.5-36.8
	s-84.1-68.3-94.6-78.8c-10.5-10.5-92-72.3-105.1-84.1c-13.1-11.8-17.1-13.1-28.9-2.6c-11.8,10.5-7.9,15.8,5.3,28.9s92,71,105.1,84.1
	s38.1,59.1,43.4,73.6c5.3,14.5-3.9,49.9-6.6,64.4s-21,31.5-36.8,38.1c-15.8,6.6-11.8,7.9-10.5,19.7c2.6,32.9-25,73.6-71,72.3
	c-36.8-1.3-65.7-34.2-65.7-68.3c0-22.3,17.1-46,27.6-55.2c10.5-9.2,9.2-22.3,10.5-39.4s-17.1-47.3-25-61.8
	c-7.9-14.5-42.1-40.7-55.2-51.3c-13.1-10.5-17.1-6.6-28.9,3.9c-11.8,10.5-9.2,17.1,1.3,25c26.3,25,28.9,38.1,27.6,48.6l-3.9,53.9
	c-1.3,11.8-3.9,23.7-15.8,34.2c-11.8,10.5-39.4,39.4-52.6,47.3s-15.8,6.6-26.3-6.6s-10.5-17.1-1.3-23.7c9.2-6.6,31.5-23.7,47.3-43.4
	c9.2-11.8,6.6-21,9.2-46c2.6-21-1.3-26.3-17.1-42.1c-3.9-3.9-10.5-1.3-18.4,6.6s-18.4,0-31.5-10.5c-13.1-10.5-5.3-17.1,2.6-26.3
	c7.9-9.2,13.1-13.1,0-22.3c-13.1-9.2-74.9-69.7-86.7-80.2c-11.8-10.5-59.1-56.5-68.3-72.3c-9.2-15.8-53.9-53.9-65.7-65.7
	c-11.8-11.8-36.8-34.2-42.1-51.3s23.7-47.3,35.5-52.6c11.8-5.3,40.7,2.6,56.5,0c15.8-2.6,6.6-10.5,1.3-18.4
	c-5.3-7.9-17.1-27.6-27.6-39.4c-10.5-11.8-26.3-76.2-31.5-89.4s23.7-30.2,38.1-26.3c14.5,3.9,59.1,7.9,78.8,13.1s47.3,25,56.5,35.5
	c9.2,10.5,10.5,0,11.8-22.3c1.3-22.3,6.6-30.2,22.3-30.2c15.8,0,134-3.9,149.8-6.6s21,5.3,34.2,11.8c13.1,6.6,14.5,14.5,2.6,25
	s-18.4,6.6-25,1.3c-6.6-5.3-13.1,0-23.7,0c-10.5,0-84.1,3.9-97.2,3.9s-21-3.9-25,6.6s-1.3,17.1-2.6,30.2s-42.1,27.6-49.9,18.4
	c-7.9-9.2-31.5-21-47.3-31.5c-15.8-10.5-47.3-11.8-63.1-15.8c-15.8-3.9-11.8,3.9-7.9,23.7c6.6,34.2,17.1,47.3,59.1,99.9
	c10.5,13.1-10.5,47.3-21,47.3s-38.1,2.6-57.8,0c-14.5-1.3-11.8,9.2-6.6,21c5.3,11.8,31.5,32.9,44.7,47.3
	c17.1,18.4,82.8,86.7,94.6,102.5s81.5,81.5,92,92c10.5,10.5,13.1,7.9,21-2.6c7.9-10.5,5.3-13.1-3.9-23.7
	c-9.2-10.5-85.4-82.8-99.9-98.6c-14.5-15.8-35.5-67-43.4-89.4c-7.9-22.3,5.3-71,11.8-85.4c14.5-30.2,35.5-48.6,48.6-52.6
	c15.8-3.9,19.7-9.2,28.9-23.7c7.9-13.1,28.9-28.9,53.9-28.9c42.1,0,68.3,31.5,68.3,65.7c0,26.3-17.1,56.5-30.2,60.5
	c-21,6.6-25,11.8-28.9,27.6c-7.9,35.5,6.6,56.5,17.1,78.8c10.5,22.3,46,46,57.8,59.1c11.8,13.1,15.8,11.8,26.3,0
	c10.5-11.8,6.6-13.1,1.3-21c-5.3-7.9-21-14.5-28.9-27.6c-13.1-21-14.5-90.7-3.9-103.8s67-57.8,74.9-65.7c7.9-7.9,14.5-13.1,28.9-2.6
	c11.8,9.2,15.8,19.7,6.6,26.3s-51.3,46-61.8,52.6c-10.5,6.6-11.8,13.1-11.8,44.7s9.2,35.5,19.7,47.3c10.5,11.8,17.1,6.6,23.7,0
	c6.6-6.6,14.5-9.2,26.3,1.3c11.8,10.5,9.2,17.1-1.3,27.6s1.3,18.4,15.8,28.9s114.3,86.7,127.5,102.5c13.1,15.8,107.8,84.1,123.5,92
	c15.8,7.9,21,23.7,26.3,38.1C891.7,696.7,873.3,728.2,861.5,729.5z M255.7,841.2c-11.8,10.5-15.8,11.8-25,2.6l-39.4-43.4
	c-10.5-9.2-7.9-19.7,2.6-28.9c14.5-11.8,15.8-11.8,26.3-1.3c10.5,10.5,32.9,34.2,42.1,47.3C271.5,830.7,267.5,830.7,255.7,841.2z
	 M263.6,926.6c-10.5,10.5-57.8,6.6-68.3-7.9c-9.2-13.1-7.9-13.1,3.9-22.3c11.8-9.2,22.3-17.1,28.9-5.3c3.9,6.6,9.2,0,19.7-9.2
	l34.2-32.9c10.5-10.5,17.1-9.2,27.6,1.3c10.5,10.5,15.8,18.4,2.6,27.6S274.1,916.1,263.6,926.6z M349,728.2
	c-3.9-7.9-6.6-2.6-14.5,3.9l-42.1,42.1c-10.5,10.5-23.7,10.5-30.2,1.3c-11.8-14.5-11.8-22.3-1.3-28.9c10.5-6.6,43.4-44.7,56.5-55.2
	c9.2-7.9,36.8-13.1,51.3-1.3s13.1,23.7,0,32.9C355.6,732.1,351.6,733.5,349,728.2z M398.9,404.9c-3.9-11.8-31.5-64.4-26.3-80.2
	c11.8-36.8,15.8-46,1.3-51.3c-22.3-7.9-17.1-32.9-28.9-32.9c-10.5,0-23.7,9.2-28.9,25c-5.3,15.8-14.5,42.1-7.9,64.4
	c6.6,22.3,18.4,64.4,31.5,77.5l94.6,89.4c13.1,13.1,21,17.1,31.5,5.3c11.8-14.5,18.4-19.7,2.6-30.2
	C452.8,461.4,402.9,416.7,398.9,404.9z M473.8,847.8c-30.2,19.7-82.8,67-95.9,78.8c-13.1,11.8-53.9,7.9-61.8-2.6
	c-7.9-10.5-7.9-14.5,2.6-22.3c14.5-11.8,18.4-13.1,21-10.5c6.6,6.6,13.1,6.6,23.7-3.9l67-60.5c10.5-9.2,5.3-11.8-1.3-18.4
	c-6.6-6.6-2.6-9.2,13.1-21c14.5-10.5,14.5-9.2,32.9,6.6C488.3,805.7,488.3,838.6,473.8,847.8z M374,847.8
	c-10.5,7.9-18.4,7.9-28.9-3.9c-11.8-13.1-23.7-21-30.2-28.9c-6.6-7.9-3.9-17.1,3.9-23.7c10.5-9.2,11.8-11.8,23.7,0l34.2,34.2
	C385.8,834.6,384.5,839.9,374,847.8z M410.8,186.8c-17.1,0-32.9,14.5-32.9,34.2s13.1,31.5,32.9,31.5s32.9-14.5,31.5-34.2
	C441,198.6,434.4,186.8,410.8,186.8z M657.8,662.5c-6.6-15.8-19.7-44.7-31.5-52.6L529,528.5c-13.1-10.5-21-17.1-34.2-3.9
	c-10.5,10.5-10.5,15.8,2.6,26.3c13.1,10.5,65.7,51.3,71,64.4c5.3,13.1,27.6,52.6,26.3,67c-1.3,14.5-10.5,34.2,0,35.5
	c21,2.6,27.6,17.1,36.8,17.1s19.7-10.5,26.3-26.3C664.4,691.4,664.4,678.3,657.8,662.5z M631.5,107.9c-9.2-6.6-10.5,2.6-18.4,10.5
	s-67,59.1-76.2,64.4c-9.2,5.3-6.6,10.5,0,17.1c6.6,6.6,3.9,13.1-7.9,19.7c-11.8,6.6-11.8,7.9-25-3.9c-17.1-15.8-15.8-47.3-5.3-55.2
	c10.5-7.9,86.7-67,99.9-84.1c9.2-11.8,48.6-5.3,57.8,2.6c9.2,7.9,10.5,14.5,0,25C646,114.5,640.7,114.5,631.5,107.9z M579,750.5
	c-21,0-32.9,14.5-32.9,32.9c0,18.4,10.5,34.2,31.5,34.2s38.1-17.1,35.5-34.2C610.5,766.3,602.6,750.5,579,750.5z M652.6,215.7
	c-9.2,7.9-19.7,10.5-26.3,1.3c-6.6-9.2-21-22.3-32.9-30.2c-11.8-7.9,1.3-17.1,10.5-26.3c10.5-10.5,17.1-3.9,26.3,3.9l31.5,25
	C672.3,198.6,661.8,207.8,652.6,215.7z M656.5,322.1c-11.8,11.8-32.9,15.8-59.1-7.9c-13.1-11.8-9.2-18.4,1.3-27.6
	c10.5-9.2,15.8-10.5,25-3.9s7.9,0,17.1-5.3c9.2-5.3,35.5-31.5,46-42.1c10.5-10.5,15.8-11.8,27.6-3.9c15.8,10.5,13.1,22.3,2.6,34.2
	L656.5,322.1z M776.1,105.3c-10.5,10.5-22.3,9.2-27.6,3.9c-5.3-5.3-6.6-1.3-14.5,3.9c-7.9,5.3-31.5,31.5-42.1,42.1s-21,6.6-30.2-3.9
	c-11.8-14.5-6.6-17.1,1.3-26.3l56.5-52.6c9.2-9.2,46,0,57.8,10.5C789.2,93.5,786.6,94.8,776.1,105.3z M756.4,228.8l-40.7-35.5
	c-9.2-7.9-7.9-14.5-1.3-22.3c9.2-10.5,18.4-15.8,30.2-5.3s25,25,38.1,32.9c13.1,7.9,7.9,22.3,1.3,30.2
	C773.5,240.7,766.9,238,756.4,228.8z M877.3,236.7l-80.2,77.5c-13.1,11.8-32.9,13.1-57.8-5.3c-9.2-6.6-10.5-14.5-2.6-26.3
	c9.2-13.1,10.5-11.8,21-3.9c10.5,7.9,10.5,3.9,19.7-2.6s59.1-57.8,67-67c7.9-9.2,7.9-10.5,2.6-15.8c-5.3-5.3-2.6-10.5,7.9-21
	c10.5-10.5,15.8-9.2,32.9,7.9S887.8,227.5,877.3,236.7z M864.1,122.4l-48.6,44.7c-10.5,11.8-19.7,10.5-28.9,1.3
	c-13.1-11.8-14.5-18.4-6.6-28.9c7.9-10.5,42.1-36.8,51.3-47.3c11.8-14.5,23.7-13.1,36.8,0C881.2,105.3,874.7,114.5,864.1,122.4z
	 M860.2,331.3c-19.7-19.7-15.8-23.7-7.9-34.2c13.1-15.8,14.5-14.5,34.2,6.6c19.7,21,18.4,18.4,7.9,31.5
	C883.9,348.4,879.9,351,860.2,331.3z"/>
</svg>
