<?xml version="1.0" encoding="utf-8"?>
<!-- Generator: Adobe Illustrator 25.0.0, SVG Export Plug-In . SVG Version: 6.00 Build 0)  -->
<svg version="1.1" id="Layer_1" xmlns="http://www.w3.org/2000/svg" xmlns:xlink="http://www.w3.org/1999/xlink" x="0px" y="0px"
	 viewBox="0 0 1912.8 1291.5" style="enable-background:new 0 0 1912.8 1291.5;" xml:space="preserve">
<style type="text/css">
	.st0{fill:#414042;stroke:#000000;stroke-miterlimit:10;}
	.st1{fill:#00AEEF;stroke:#000000;stroke-miterlimit:10;}
</style>
<g>
	
		<image style="overflow:visible;opacity:0.75;" width="7992" height="5372" xlink:href="6748D0FF.png"  transform="matrix(0.24 0 0 0.24 -6.6587 8.3489)">
	</image>
	<g>
		<g>
			<g>
				<path class="st0" d="M173.2,1088.3c35.5,0,64.4,19,75.2,51.8h-36.9c-7.6-15.4-21.3-22.9-38.5-22.9c-28,0-47.9,20.4-47.9,52.9
					c0,32.3,19.9,52.9,47.9,52.9c17.2,0,30.9-7.6,38.5-23.1h36.9c-10.8,33-39.6,51.8-75.2,51.8c-46.1,0-81.1-33.7-81.1-81.6
					C92.1,1122.2,127.2,1088.3,173.2,1088.3z"/>
				<path class="st0" d="M386.8,1251.9c-45.1,0-82-33.9-82-82c0-47.9,36.9-81.8,82-81.8c45.6,0,81.8,33.9,81.8,81.8
					C468.6,1218,432.2,1251.9,386.8,1251.9z M386.8,1223.3c28.9,0,48.8-20.9,48.8-53.4s-19.9-52.9-48.8-52.9
					c-29.1,0-49,20.4-49,52.9S357.7,1223.3,386.8,1223.3z"/>
				<path class="st0" d="M529.1,1090.3h36.4l50.9,118.9l50.9-118.9h36.2v160h-32.1v-104l-42.9,104h-24.3l-43.1-104v104h-32.1V1090.3
					z"/>
				<path class="st0" d="M771.8,1090.3h36.4l50.9,118.9l50.9-118.9h36.2v160h-32.1v-104l-42.9,104H847l-43.1-104v104h-32.1V1090.3z"
					/>
				<path class="st0" d="M1014.1,1090.3h32.1v99c0,22,11.9,33.5,32.3,33.5c20.6,0,32.5-11.5,32.5-33.5v-99h32.3v98.8
					c0,42.2-30.3,62.8-65.3,62.8c-35.1,0-63.9-20.6-63.9-62.8V1090.3z"/>
				<path class="st0" d="M1347.8,1090.1v160.2h-32.1l-72.6-109.8v109.8H1211v-160.2h32.1l72.6,110v-110H1347.8z"/>
				<path class="st0" d="M1416.1,1090.3h32.1v160h-32.1V1090.3z"/>
				<path class="st0" d="M1508,1090.3h117.3v25.9h-42.6v134.1h-32.1v-134.1H1508V1090.3z"/>
				<path class="st0" d="M1672.1,1090.3h36.2l34.4,73.1l34.1-73.1h35.8l-54.1,104.3v55.7h-32.1v-55.7L1672.1,1090.3z"/>
			</g>
			<g>
				<g>
					<path class="st1" d="M1852,579.1c1.3,2.6,0.4,5.8-2.2,7.1c-67.3,35.9-193.6,84.2-262.2,109.9c-70.2,25.9-141.7,48.6-213.7,69.2
						c-72.2,20.2-145,37.9-218.3,53.8c-18.3,3.9-36.7,7.8-55.1,11.2c-18.4,3.5-36.8,7.2-55.2,10.5l-55.4,9.7c-18.5,3.3-37,6-55.5,9
						c-18.5,3-37,6.1-55.6,8.7l-55.6,8.6l-55.7,8.1c-18.6,2.7-37.2,5.3-55.8,7.5c-18.6,2.2-37.3,4.3-56,6.2
						c-18.7,1.9-37.4,3.1-56.1,4.4c-9.4,0.6-18.7,1.2-28.1,1.6c-9.4,0.4-18.7,1.1-28.1,1.2c-18.7,0.5-37.5,0.7-56.3,0.9
						c-37.5,0.4-75-1-112.5-2.2c-18.7-0.6-37.5-1.8-56.2-3.1l-28.1-1.9l-28.1-2.2c-37.4-3.5-74.7-7.9-112-12.9
						c-18.6-2.8-37.2-5.9-55.8-9.2c-18.6-3.3-37.1-6.9-55.6-11.1l0.3-10.1c37.3-6.8,74.5-11.5,111.6-15.9
						c37.1-4.9,74.1-8.6,111-12.3c36.9-4.2,73.8-7.1,110.6-10.6c18.4-1.8,36.8-3.3,55.2-4.9l27.6-2.1l27.6-2.5
						c18.4-1.5,36.7-3,55.1-4.1c18.4-1.2,36.7-2.7,55.1-3.7c18.4-1.2,36.8-1.8,55.2-2.8c18.4-1,36.8-1.7,55.2-2.4
						c9.2-0.3,18.4-0.5,27.6-1l27.6-1.3c18.4-0.9,36.8-1.6,55.3-2.6l55.2-3.7c18.4-1.3,36.7-3.1,55.1-4.8c18.3-1.9,36.7-3.3,55-5.5
						l55-6.2c18.3-2.2,36.6-4.7,54.9-7c18.3-2.3,36.5-5,54.8-7.7c73.1-10.2,145.9-22.3,218.3-36.8c72.5-14.1,144.5-30.9,215.9-50.2
						c35.7-9.7,71.2-20.1,106.3-31.6c17.6-5.7,35.2-11.6,52.5-17.9c16.1-5.8,85.3-30.6,108.5-39.9
						C1847.8,575.6,1850.7,576.7,1852,579.1L1852,579.1z"/>
					<path class="st1" d="M264.6,861.7c0,0,55.5,85.3-23.2,154.1c-7.4,6.5-2.6,18.8,7.2,18.3c6.7-0.3,16.2-2.2,29.6-6.7
						c52.7-17.6,107-80,109.7-167.6L264.6,861.7z"/>
				</g>
				<g>
					<path class="st1" d="M675.7,542.2c-8.7-15.9-21.6-30.3-39-43.1c-17.3-12.8-36.8-23.1-58.4-30.9c-21.6-7.8-44.2-13.6-67.8-17.4
						c-70-10.4-135.2-33.1-195.8-68c-5.2-2.8-10.7-8.7-16.6-17.7c-5.9-9-8.8-17.7-8.8-26c0-30.5,5.1-61,15.3-91.7
						c10.2-30.6,23.3-54.6,39.2-71.9c25.6-28.7,71.8-53.8,138.4-75.3C548.9,78.7,624,68,707.4,68c49.9,0,88.4,3.8,115.6,11.4
						c27.2,7.6,40.8,19.4,40.8,35.3c0,26-3.6,46.1-10.6,60.3c-7.1,14.2-14.7,23.6-22.9,28.3c-8.1,4.7-22.4,11-42.9,19
						c-21.8,7.6-40.8,15.6-56.9,23.9c-16.1,8.3-29.9,16.3-41.3,23.9c-11.4,7.6-18.5,11.4-21.3,11.4c-3.5,0-5.2-1.4-5.2-4.2
						c0-5.9,6.1-14.8,18.4-26.7c12.3-11.9,27.4-22.4,45.4-31.4c19-10,28.6-16.4,28.6-19.2c0-4.5-10.6-6.8-31.7-6.8
						c-64.1,0-123.3,5.7-177.6,17.1c-54.4,11.4-97.2,26.5-128.6,45.2c-31.3,18.7-47,37.7-47,57.1c0,12.1,6.5,20.7,19.5,25.7
						c13,5,41.6,13.4,86,25.2c44.3,11.8,84,25.3,118.9,40.5c50.2,21.5,87.4,43.8,111.7,67c24.2,23.2,36.4,49.2,36.4,77.9
						c0,19.7-4.8,39.6-14.3,59.5c-9.5,19.9-23.5,38.2-41.8,54.8c-18.4,16.6-39.5,30.3-63.4,41c-20.4,8.7-46.1,16.8-77.1,24.4
						c-31,7.6-64.6,13.6-100.8,17.9c-36.2,4.3-70.7,6.5-103.6,6.5c-60.6,0-109.3-5.7-146.2-17.1c-36.9-11.4-55.3-28.7-55.3-51.9
						c0-10.4,6.2-26.6,18.7-48.6c12.5-22,27.2-36.8,44.2-44.4c14.9-5.9,29.3-9.3,43.1-10.1c13.8-0.9,20.8,0.8,20.8,4.9
						c0,1-0.5,2.1-1.6,3.1c-1,1-2.3,1.9-3.6,2.6c-1.4,0.7-2.8,1.4-4.2,2.1c-6.9,2.8-12.6,4.9-16.9,6.5c-4.3,1.6-7.8,3.1-10.4,4.7
						c-2.6,1.6-3.9,3.7-3.9,6.5c0,7.3,35.8,10.9,107.5,10.9c62.3,0,113.4-2.2,153.2-6.8c39.8-4.5,75-12.6,105.4-24.4
						C623.1,579.3,650.8,563,675.7,542.2z"/>
					<path class="st1" d="M1070,493.4c-50.2,66.5-88.4,113.8-114.5,141.8c-26.2,28.1-47.5,42.1-64.1,42.1
						c-13.2,0-25.3-5.5-36.4-16.4c-11.1-10.9-19.7-25.6-25.7-44.2c-6.1-18.5-9.1-38.3-9.1-59.5c0-13.8,1.3-26.3,3.9-37.4
						c2.6-11.1,7.5-23.3,14.8-36.6c7.3-13.3,16.9-27.8,28.8-43.4c11.9-15.6,26.6-33.2,43.9-53c10.4-12.1,19.1-22.3,26.2-30.6
						c7.1-8.3,14-13.9,20.8-16.9c6.8-2.9,17.7-4.4,33-4.4c11.1,0,21.6,1.5,31.7,4.4c10,2.9,15.1,6,15.1,9.1
						c0,6.2-5.1,17.5-15.3,33.8c-10.2,16.3-26.7,36.1-49.3,59.5c-22.7,23.4-48.9,46.3-78.7,68.8c-6.6,20.4-9.9,36-9.9,46.7
						c0,14.9,5.7,22.3,17.1,22.3c4.2,0,11.1-3.5,20.8-10.6c9.7-7.1,26.1-20.8,49.1-41c23-20.3,43.7-38.2,62.1-53.8
						c13.5-11.8,29.2-29.3,47-52.7c17.8-23.4,32.3-40.9,43.4-52.7c25.6-27,43.1-44.6,52.5-52.7c9.4-8.1,18.4-12.2,27-12.2
						c8.3,0,13.9,2.6,16.9,7.8c2.9,5.2,4.4,15.8,4.4,31.7c0,7.3-0.7,13.2-2.1,17.7c-1.4,4.5-4.2,10.3-8.6,17.4
						c-4.3,7.1-13.1,20.2-26.2,39.2c-13.2,19-28.7,41.6-46.7,67.5c-9.7,13.9-18.2,29-25.5,45.4c-7.3,16.5-10.9,28.8-10.9,37.1
						c0,18,7.1,27,21.3,27c11.8,0,25.5-4.8,41-14.5c15.6-9.7,39.5-27.2,71.7-52.5v34.8c-40.5,37.4-70.5,64.6-89.9,81.5
						c-19.4,17-36.2,29.8-50.4,38.4c-14.2,8.7-27.7,13-40.5,13c-29.1,0-43.6-17.3-43.6-51.9c0-13.2,4.3-30.9,13-53.2
						C1036.6,567.9,1050.6,535.6,1070,493.4z"/>
					<path class="st1" d="M1229.5,568.7v-33.8c18.7-22.2,32.9-41,42.6-56.6c-11.1-3.8-19.1-8.5-24.2-14c-5-5.5-7.5-13.8-7.5-24.9
						c0-12.5,5.2-28.2,15.6-47.3c10.4-19,23.2-36.9,38.4-53.5c15.2-16.6,29.1-27.4,41.6-32.2c4.8-2.4,9.5-3.6,14-3.6
						c6.9,0,10.4,3.3,10.4,9.9c0,5.9-5.4,17.8-16.1,35.8c71.3-11.1,116.4-16.6,135.1-16.6c7.3,0,12.3,0.7,15.1,2.1
						c5.9,3.1,10.7,10.4,14.5,21.8c3.8,11.4,5.7,22.9,5.7,34.3c0,7.3-3.2,15.2-9.6,23.6c-6.4,8.5-17.4,20.9-33,37.1
						c-18.4,19.7-33.8,41.2-46.2,64.4c-12.5,23.2-18.7,40.7-18.7,52.5c0,16.3,10,24.4,30.1,24.4c21.1,0,57.8-21.5,110.1-64.4v34.8
						c-28.7,30.1-52.5,53.8-71.2,71.2c-18.7,17.3-36,31.1-51.9,41.3c-15.9,10.2-30.1,15.3-42.6,15.3c-14.5,0-26.7-6.7-36.4-20
						c-9.7-13.3-14.5-32.6-14.5-57.9c0-14.9,3.8-31.9,11.4-50.9c7.6-19,18.8-39.7,33.5-62.1c14.7-22.3,31.2-44.6,49.6-66.7
						c-9.7,2.1-20.6,4.2-32.7,6.5c-12.1,2.3-24.9,4.6-38.4,7c-13.5,2.4-23.9,4.3-31.2,5.7C1301.5,494.8,1270.3,533.7,1229.5,568.7z"
						/>
					<path class="st1" d="M1743.2,638.3c0,31.5-1.6,58.3-4.7,80.5c-3.1,22.2-10,45.4-20.8,69.9c-10.7,24.4-27.4,51.2-49.9,80.3
						c-22.2,28.7-44,50.8-65.4,66.2c-21.5,15.4-38.3,23.1-50.4,23.1c-13.5,0-26-11.1-37.4-33.2c-11.4-22.2-17.1-49.7-17.1-82.6
						c0-31.5,5.4-64.8,16.1-99.7c10.7-35,27.4-80.2,49.9-135.6c-17-22.2-25.5-44.2-25.5-66c0-17.7,4.5-31.2,13.5-40.5
						c9-9.4,21.8-17.8,38.4-25.5c12.1-19,23.6-35.2,34.5-48.6c10.9-13.3,25.7-31.1,44.4-53.2c36-88.6,78.3-175.2,126.7-259.7
						c13.5-23.5,23.2-39.4,29.1-47.5c5.9-8.1,12.1-12.2,18.7-12.2c5.9,0,11.1,4.3,15.6,13c4.5,8.7,6.8,19.9,6.8,33.8
						c0,17-1.8,32.6-5.5,46.7c-3.6,14.2-8.8,28.5-15.6,42.9c-6.8,14.4-16.1,31.6-28,51.7c-11.9,20.1-19.3,32.6-22.1,37.4
						c-17.3,30.5-36.9,64.2-58.7,101.3c-21.8,37.1-39,66.3-51.7,87.8c-12.6,21.5-21.7,37.6-27.3,48.3c18.7,16.3,33.5,30.3,44.4,42.1
						c10.9,11.8,20.3,25.8,28.3,42.1C1734.7,609.8,1736.8,616.6,1743.2,638.3z M1679.3,667.9l-1-10.9c-9.7,1-17.5,1.3-23.4,0.8
						c-5.9-0.5-12.7-2-20.5-4.4c-7.8-2.4-13.9-4.7-18.2-6.8c-4.3-2.1-9.1-4.2-14.3-6.2c-26.3,64.4-39.5,117.9-39.5,160.5
						c0,21.1,3.2,39.1,9.6,54c6.4,14.9,13.9,22.3,22.6,22.3c9,0,20.3-8,34-23.9c13.7-15.9,25.5-39.5,35.6-70.6
						C1674.3,751.5,1679.3,713.3,1679.3,667.9z"/>
				</g>
			</g>
		</g>
	</g>
</g>
</svg>
