<?xml version="1.0" encoding="utf-8"?>
<!-- Generator: Adobe Illustrator 25.0.0, SVG Export Plug-In . SVG Version: 6.00 Build 0)  -->
<svg version="1.1" id="Layer_1" xmlns="http://www.w3.org/2000/svg" xmlns:xlink="http://www.w3.org/1999/xlink" x="0px" y="0px"
	 viewBox="0 0 8175.5 1455.5" style="enable-background:new 0 0 8175.5 1455.5;" xml:space="preserve">
<style type="text/css">
	.st0{fill:#414042;stroke:#000000;stroke-miterlimit:10;}
	.st1{fill:#00AEEF;stroke:#000000;stroke-miterlimit:10;}
</style>
<g>
	
		<image style="overflow:visible;opacity:0.75;" width="33630" height="5909" xlink:href="A77EA079.png"  transform="matrix(0.24 0 0 0.24 72.3174 16.529)">
	</image>
	<g>
		<g>
			<g>
				<path class="st0" d="M3040.1,517.2c109.6,0,198.7,58.7,231.9,159.8h-113.8c-23.3-47.4-65.8-70.7-118.8-70.7
					c-86.3,0-147.8,62.9-147.8,163.3c0,99.7,61.5,163.3,147.8,163.3c53,0,95.4-23.3,118.8-71.4H3272
					c-33.2,101.8-122.3,159.8-231.9,159.8c-142.1,0-250.3-103.9-250.3-251.7C2789.9,621.8,2898,517.2,3040.1,517.2z"/>
				<path class="st0" d="M3699.1,1022c-139.3,0-253.1-104.6-253.1-253.1c0-147.8,113.8-252.4,253.1-252.4
					c140.7,0,252.4,104.6,252.4,252.4C3951.5,917.3,3839.1,1022,3699.1,1022z M3699.1,933.6c89.1,0,150.6-64.3,150.6-164.7
					s-61.5-163.3-150.6-163.3c-89.8,0-151.3,62.9-151.3,163.3S3609.3,933.6,3699.1,933.6z"/>
				<path class="st0" d="M4138.2,523.5h112.4l157,366.9l157-366.9h111.7V1017h-99V696l-132.2,321h-74.9l-132.9-321v321h-99V523.5z"
					/>
				<path class="st0" d="M4887,523.5h112.4l157,366.9l157-366.9H5425V1017h-99V696l-132.2,321h-74.9L4986,696v321h-99V523.5z"/>
				<path class="st0" d="M5634.3,523.5h99V829c0,67.9,36.8,103.2,99.7,103.2c63.6,0,100.4-35.4,100.4-103.2V523.5h99.7v304.7
					c0,130.1-93.3,193.7-201.5,193.7c-108.2,0-197.3-63.6-197.3-193.7V523.5z"/>
				<path class="st0" d="M6663.8,522.8V1017h-99l-224.1-338.7V1017h-99V522.8h99l224.1,339.4V522.8H6663.8z"/>
				<path class="st0" d="M6874.5,523.5h99V1017h-99V523.5z"/>
				<path class="st0" d="M7158,523.5h362v79.9h-131.5V1017h-99V603.4H7158V523.5z"/>
				<path class="st0" d="M7664.3,523.5H7776L7882,749.1l105.3-225.5h110.3l-166.9,321.7V1017h-99V845.2L7664.3,523.5z"/>
			</g>
			<g>
				<g>
					<path class="st1" d="M980.2,723.1c-11.7-21.6-29.3-41-52.7-58.4c-23.4-17.3-49.8-31.3-79.1-41.8
						c-29.3-10.5-59.9-18.4-91.8-23.6c-94.7-14.1-183.1-44.8-265.1-92.1c-7-3.7-14.5-11.7-22.5-23.9c-8-12.2-12-23.9-12-35.2
						c0-41.2,6.9-82.6,20.7-124.1c13.8-41.5,31.5-73.9,53.1-97.4c34.7-38.9,97.1-72.9,187.4-102c90.2-29.1,191.8-43.6,304.8-43.6
						c67.5,0,119.6,5.2,156.5,15.5c36.8,10.3,55.2,26.3,55.2,47.8c0,35.2-4.8,62.3-14.4,81.6c-9.6,19.2-19.9,32-30.9,38.3
						c-11,6.3-30.4,14.9-58,25.7c-29.5,10.3-55.2,21.1-77,32.3c-21.8,11.2-40.4,22-55.9,32.3c-15.5,10.3-25.1,15.5-28.8,15.5
						c-4.7,0-7-1.9-7-5.6c0-8,8.3-20,25-36.2c16.6-16.2,37.1-30.3,61.5-42.5c25.8-13.6,38.7-22.3,38.7-26c0-6.1-14.3-9.1-42.9-9.1
						c-86.7,0-166.9,7.7-240.5,23.2c-73.6,15.5-131.6,35.9-174,61.2c-42.4,25.3-63.6,51.1-63.6,77.3c0,16.4,8.8,28,26.4,34.8
						c17.6,6.8,56.4,18.2,116.4,34.1c60,15.9,113.7,34.2,161,54.8c68,29.1,118.4,59.3,151.2,90.7c32.8,31.4,49.2,66.6,49.2,105.5
						c0,26.7-6.4,53.6-19.3,80.5c-12.9,27-31.8,51.7-56.6,74.2c-24.9,22.5-53.4,41-85.8,55.5c-27.7,11.7-62.5,22.7-104.4,33
						c-42,10.3-87.4,18.4-136.4,24.3c-49,5.9-95.7,8.8-140.3,8.8c-82,0-148-7.7-197.9-23.2c-49.9-15.5-74.9-38.9-74.9-70.3
						c0-14.1,8.4-36,25.3-65.7c16.9-29.8,36.8-49.8,59.8-60.1c20.2-8,39.6-12.5,58.4-13.7c18.7-1.2,28.1,1.1,28.1,6.7
						c0,1.4-0.7,2.8-2.1,4.2s-3.1,2.6-4.9,3.5c-1.9,0.9-3.8,1.9-5.6,2.8c-9.4,3.8-17,6.7-22.9,8.8c-5.9,2.1-10.5,4.2-14.1,6.3
						c-3.5,2.1-5.3,5-5.3,8.8c0,9.8,48.5,14.8,145.6,14.8c84.4,0,153.5-3,207.4-9.1c53.9-6.1,101.5-17.1,142.7-33
						C908.9,773.3,946.4,751.2,980.2,723.1z"/>
					<path class="st1" d="M1513.9,657c-68,90-119.7,154-155,192c-35.4,38-64.3,57-86.8,57c-17.8,0-34.2-7.4-49.2-22.1
						c-15-14.8-26.6-34.7-34.8-59.8c-8.2-25.1-12.3-51.9-12.3-80.5c0-18.7,1.8-35.6,5.3-50.6c3.5-15,10.2-31.5,20-49.6
						c9.8-18,22.9-37.6,39-58.7c16.2-21.1,36-45,59.4-71.7c14.1-16.4,25.9-30.2,35.5-41.5c9.6-11.3,19-18.9,28.1-22.9
						c9.1-4,24-6,44.7-6c15,0,29.3,2,42.9,6c13.6,4,20.4,8.1,20.4,12.3c0,8.4-6.9,23.7-20.7,45.7c-13.8,22-36.1,48.9-66.8,80.5
						c-30.7,31.6-66.2,62.7-106.5,93.2c-8.9,27.7-13.4,48.8-13.4,63.3c0,20.2,7.7,30.2,23.2,30.2c5.6,0,15-4.8,28.1-14.4
						c13.1-9.6,35.3-28.1,66.4-55.6c31.2-27.4,59.2-51.7,84-72.8c18.3-15.9,39.5-39.7,63.6-71.4c24.1-31.6,43.7-55.4,58.7-71.4
						c34.7-36.6,58.4-60.4,71-71.4c12.7-11,24.8-16.5,36.6-16.5c11.3,0,18.9,3.5,22.9,10.5c4,7,6,21.3,6,42.9
						c0,9.8-0.9,17.8-2.8,23.9c-1.9,6.1-5.7,14-11.6,23.6c-5.9,9.6-17.7,27.3-35.5,53.1c-17.8,25.8-38.9,56.3-63.3,91.4
						c-13.1,18.8-24.6,39.3-34.5,61.5c-9.8,22.3-14.8,39-14.8,50.3c0,24.4,9.6,36.6,28.8,36.6c15.9,0,34.5-6.6,55.6-19.7
						c21.1-13.1,53.4-36.8,97-71v47.1c-54.8,50.6-95.4,87.4-121.6,110.4c-26.3,23-49,40.3-68.2,52c-19.2,11.7-37.5,17.6-54.8,17.6
						c-39.4,0-59.1-23.4-59.1-70.3c0-17.8,5.9-41.8,17.6-72.1C1468.6,757.9,1487.6,714.2,1513.9,657z"/>
					<path class="st1" d="M1729.7,759v-45.7c25.3-30,44.5-55.6,57.7-76.6c-15-5.2-25.9-11.5-32.7-19c-6.8-7.5-10.2-18.7-10.2-33.8
						c0-16.9,7-38.2,21.1-64c14.1-25.8,31.4-49.9,52-72.4c20.6-22.5,39.4-37,56.3-43.6c6.6-3.3,12.9-4.9,19-4.9
						c9.4,0,14.1,4.5,14.1,13.4c0,8-7.3,24.1-21.8,48.5c96.6-15,157.5-22.5,182.8-22.5c9.8,0,16.6,0.9,20.4,2.8
						c8,4.2,14.5,14.1,19.7,29.5c5.2,15.5,7.7,30.9,7.7,46.4c0,9.8-4.3,20.5-13,32c-8.7,11.5-23.6,28.2-44.7,50.3
						c-24.9,26.7-45.7,55.8-62.6,87.2c-16.9,31.4-25.3,55.1-25.3,71c0,22,13.6,33,40.8,33c28.6,0,78.3-29.1,149.1-87.2v47.1
						c-38.9,40.8-71,72.9-96.3,96.3c-25.3,23.4-48.8,42.1-70.3,55.9c-21.6,13.8-40.8,20.7-57.7,20.7c-19.7,0-36.1-9-49.2-27.1
						c-13.1-18-19.7-44.2-19.7-78.4c0-20.2,5.2-43.1,15.5-68.9c10.3-25.8,25.4-53.8,45.4-84c19.9-30.2,42.3-60.4,67.2-90.4
						c-13.1,2.8-27.9,5.7-44.3,8.8c-16.4,3.1-33.8,6.2-52,9.5c-18.3,3.3-32.3,5.9-42.2,7.7C1827.2,658.9,1785.1,711.6,1729.7,759z"
						/>
					<path class="st1" d="M2425.2,853.2c0,42.7-2.1,79-6.3,109c-4.2,30-13.6,61.5-28.1,94.6c-14.5,33-37,69.3-67.5,108.6
						c-30,38.9-59.5,68.8-88.6,89.7c-29.1,20.9-51.8,31.3-68.2,31.3c-18.3,0-35.2-15-50.6-45c-15.5-30-23.2-67.3-23.2-111.8
						c0-42.7,7.3-87.7,21.8-135c14.5-47.4,37-108.5,67.5-183.5c-23-30-34.5-59.8-34.5-89.3c0-23.9,6.1-42.2,18.3-54.8
						c12.2-12.7,29.5-24.1,52-34.5c16.4-25.8,32-47.7,46.8-65.7c14.8-18,34.8-42.1,60.1-72.1c48.7-120,105.9-237.2,171.6-351.6
						c18.3-31.9,31.4-53.3,39.4-64.3c8-11,16.4-16.5,25.3-16.5c8,0,15,5.9,21.1,17.6c6.1,11.7,9.1,27,9.1,45.7
						c0,23-2.5,44.1-7.4,63.3c-4.9,19.2-12,38.6-21.1,58c-9.1,19.5-21.8,42.8-38,70c-16.2,27.2-26.1,44.1-29.9,50.6
						c-23.4,41.3-49.9,87-79.5,137.1c-29.5,50.2-52.9,89.8-70,118.8c-17.1,29.1-29.4,50.9-36.9,65.4c25.3,22,45.4,41,60.1,57
						c14.8,15.9,27.5,34.9,38.3,57C2413.7,814.6,2416.6,823.8,2425.2,853.2z M2338.7,893.3l-1.4-14.8c-13.1,1.4-23.7,1.8-31.6,1.1
						c-8-0.7-17.2-2.7-27.8-6c-10.5-3.3-18.8-6.3-24.6-9.1c-5.9-2.8-12.3-5.6-19.3-8.4c-35.6,87.2-53.4,159.6-53.4,217.3
						c0,28.6,4.3,53,13,73.1c8.7,20.1,18.9,30.2,30.6,30.2c12.2,0,27.5-10.8,46.1-32.3c18.5-21.6,34.6-53.4,48.2-95.6
						C2331.9,1006.5,2338.7,954.7,2338.7,893.3z"/>
				</g>
				<g>
					<path class="st1" d="M2572.5,773.1c1.8,3.5,0.5,7.8-3,9.6c-91.1,48.6-262.1,114-354.9,148.8c-95.1,35.1-191.8,65.9-289.3,93.7
						c-97.7,27.3-196.3,51.4-295.5,72.9c-24.8,5.2-49.7,10.5-74.6,15.2c-24.9,4.7-49.8,9.7-74.8,14.3l-75,13.2
						c-25,4.5-50.1,8.1-75.1,12.2c-25.1,4.1-50.1,8.3-75.2,11.8l-75.3,11.7l-75.4,10.9c-25.2,3.6-50.3,7.2-75.6,10.1
						c-25.2,3-50.5,5.9-75.8,8.4c-25.3,2.6-50.6,4.2-75.9,5.9c-12.7,0.8-25.3,1.7-38,2.2c-12.7,0.6-25.4,1.5-38.1,1.6
						c-25.4,0.7-50.8,1-76.2,1.2c-50.8,0.5-101.6-1.3-152.3-2.9c-25.4-0.9-50.7-2.4-76.1-4.2l-38-2.6l-38-3
						c-50.6-4.7-101.1-10.7-151.6-17.5c-25.2-3.8-50.4-7.9-75.5-12.5c-25.1-4.4-50.2-9.4-75.2-15l0.4-13.7
						c50.5-9.2,100.9-15.6,151.1-21.5c50.2-6.6,100.3-11.7,150.3-16.7c50-5.7,99.9-9.6,149.8-14.3c24.9-2.5,49.8-4.4,74.7-6.6
						l37.4-2.9l37.3-3.4c24.9-2,49.7-4,74.6-5.6c24.9-1.6,49.7-3.7,74.6-5c24.9-1.6,49.8-2.4,74.7-3.8c24.9-1.3,49.8-2.4,74.7-3.3
						c12.5-0.4,25-0.7,37.4-1.3l37.4-1.8c24.9-1.2,49.9-2.1,74.8-3.5l74.7-5c24.9-1.7,49.7-4.1,74.6-6.4c24.8-2.5,49.7-4.5,74.5-7.5
						l74.4-8.4c24.8-2.9,49.5-6.4,74.3-9.5c24.8-3,49.5-6.8,74.2-10.4c98.9-13.8,197.5-30.2,295.5-49.8
						c98.1-19.1,195.6-41.9,292.2-67.9c48.3-13.2,96.3-27.2,144-42.7c23.8-7.7,47.6-15.6,71.1-24.2c21.8-7.9,115.5-41.4,146.8-54
						C2566.8,768.4,2570.8,769.8,2572.5,773.1L2572.5,773.1z"/>
					<path class="st1" d="M423.6,1155.6c0,0,75.2,115.5-31.4,208.6c-10,8.8-3.5,25.4,9.8,24.7c9.1-0.5,22-3,40.1-9.1
						c71.3-23.8,144.9-108.3,148.5-226.9L423.6,1155.6z"/>
				</g>
			</g>
		</g>
	</g>
</g>
</svg>
