<?xml version="1.0" encoding="utf-8"?>
<!-- Generator: Adobe Illustrator 25.0.0, SVG Export Plug-In . SVG Version: 6.00 Build 0)  -->
<svg version="1.1" id="Layer_1" xmlns="http://www.w3.org/2000/svg" xmlns:xlink="http://www.w3.org/1999/xlink" x="0px" y="0px"
	 viewBox="0 0 3965.9 656" style="enable-background:new 0 0 3965.9 656;" xml:space="preserve">
<style type="text/css">
	.st0{fill:url(#SVGID_1_);}
	.st1{fill:url(#SVGID_2_);}
	.st2{fill:url(#SVGID_3_);}
	.st3{fill:url(#SVGID_4_);}
	.st4{fill:url(#SVGID_5_);}
	.st5{fill:url(#SVGID_6_);}
	.st6{fill:url(#SVGID_7_);}
	.st7{fill:url(#SVGID_8_);}
	.st8{fill:url(#SVGID_9_);}
</style>
<g>
	
		<image style="overflow:visible;opacity:0.2;" width="16542" height="2782" xlink:href="F875E4E7.png"  transform="matrix(0.24 0 0 0.24 7.7639 8.1665)">
	</image>
	<g>
		<g>
			<radialGradient id="SVGID_1_" cx="305.9956" cy="316.1673" r="297.9509" gradientUnits="userSpaceOnUse">
				<stop  offset="0" style="stop-color:#6D6E71"/>
				<stop  offset="1" style="stop-color:#414042"/>
			</radialGradient>
			<path class="st0" d="M595.4,553.4c-0.8,36-32.8,64.8-80.8,64.8c-32,0-100-3.2-138.4-1.6c-5.6,0.8-32.8,2.4-63.2,2.4
				c-31.2-0.8-66.4-1.6-90.4-2.4c-52-2.4-128,0-148,1.6c-24,1.6-56-12.8-56-36.8c0-18.4-5.6-55.2-4-84c1.6-28.8,4.8-72,3.2-103.2
				c-0.8-14.4,19.2-28.8,32-28.8s86.4,21.6,96.8,26.4c18.4,8,26.4,8,31.2,0c4-6.4,4.8-15.2-13.6-28.8C118.6,327.8,89,289.4,61,267.8
				c-44-34.4-48-58.4-48-122.4c0-20,5.6-44,5.6-72s40-57.6,72-56c26.4,1.6,120-0.8,320-4c24,0,72,4,107.2,3.2
				c36.8-0.8,76.8,24.8,76.8,48.8s2.4,44,4,72c1.6,32-1.6,80,0,100c1.6,20-20,37.6-32,37.6c-12,0-96-21.6-120-33.6
				c-13.6-7.2-24-7.2-28.8,0.8c-5.6,8.8-4,16,8.8,23.2c28,16,116,84,138.4,97.6c19.2,12,34.4,46.4,33.6,66.4
				C597.8,448.6,595.4,537.4,595.4,553.4z M573,145.4c0-24-6.4-52.8-6.4-72c0-16.8-24.8-32-52-32c-18.4,0-84-4-104-4
				c-173.6,0-268,4.8-304,4c-42.4-0.8-60,18.4-60,36c0,20.8-6.4,48-6.4,80c0,35.2,2.4,61.6,36.8,88.8
				c33.6,26.4,73.6,77.6,113.6,107.2c24,17.6,16.8,32,6.4,52s-27.2,22.4-42.4,16c-40-16-64-21.6-84-24.8c-16-2.4-24,8.8-24,28.8
				c0,16.8-4,41.6-4,82.4c0,25.6,4,52,4,61.6c0,12,9.6,24,32,24c20.8,0,99.2-4,136-1.6c43.2,3.2,148.8,5.6,161.6,4.8
				c32-2.4,121.6-2.4,130.4-3.2c40-4,60-20,60-44c0-16,3.2-90.4,4-108s-4-47.2-32-64c-34.4-20.8-88-68-116-85.6
				c-37.6-24-47.2-37.6-24-62.4c17.6-19.2,35.2-17.6,48-12c36,16,97.6,32,108,32c10.4,0,21.6-11.2,20-24S573,169.4,573,145.4z
				 M135.4,453.4c-4.8-4-6.4-2.4-12.8,1.6S93,490.2,87.4,494.2c-5.6,4-3.2,6.4,1.6,10.4c4.8,4,0,6.4-8,13.6c-8,7.2-8,4-17.6-3.2
				c-9.6-7.2-3.2-31.2,4-35.2s38.4-42.4,48-52c5.6-5.6,22.4-3.2,32.8,7.2c10.4,10.4,8,12,2.4,18.4
				C145,459.8,140.2,457.4,135.4,453.4z M84.2,438.2c-8,6.4-11.2,7.2-18.4-2.4c-5.6-8-6.4-11.2-0.8-16.8c8.8-8.8,13.6-8,22.4,0
				C96.2,427,92.2,431.8,84.2,438.2z M93,571c-8,8-16,4-23.2-2.4c-7.2-6.4-4.8-12.8,3.2-16.8s24-25.6,32.8-32
				c8.8-6.4,8.8-6.4,16.8,1.6c5.6,5.6,9.6,10.4,2.4,17.6L93,571z M531.4,454.2c-7.2,0.8-29.6,4.8-38.4,4c-8.8-0.8-8.8,4.8-3.2,8.8
				s29.6,21.6,31.2,29.6c1.6,8,17.6,47.2,20,56.8S527.4,575,518.6,575c-8.8,0-45.6-5.6-55.2-5.6c-9.6,0-18.4-7.2-28.8-16.8
				c-8.8-8-14.4-8.8-17.6,1.6c-3.2,10.4-8,20.8-19.2,20.8s-93.6,0-100.8,0.8c-7.2,0.8-14.4-3.2-20.8-6.4s-0.8-7.2,4.8-12.8
				c5.6-5.6,7.2-8,12.8-5.6c5.6,2.4,8,1.6,14.4,1.6c13.6,0.8,64,0,72.8,0s10.4,0,13.6-6.4c3.2-6.4,4.8-12.8,6.4-20.8
				c1.6-8,17.6-10.4,24-7.2s27.2,20,35.2,24.8c8,4.8,36.8,7.2,45.6,7.2c8.8,0,8.8-3.2,6.4-8.8c-2.4-5.6-12-28.8-16-36.8
				c-4-8-38.4-33.6-44.8-40c-6.4-6.4,0.8-25.6,9.6-26.4s40-2.4,48-2.4c7.2,0,13.6-10.4,6.4-14.4c-7.2-4-24.8-16-34.4-22.4
				c-9.6-6.4-51.2-41.6-57.6-48c-6.4-6.4-56-44-64-51.2s-10.4-8-17.6-1.6c-7.2,6.4-4.8,9.6,3.2,17.6c8,8,56,43.2,64,51.2
				c8,8,23.2,36,26.4,44.8c3.2,8.8-2.4,30.4-4,39.2c-1.6,8.8-12.8,19.2-22.4,23.2c-9.6,4-7.2,4.8-6.4,12c1.6,20-15.2,44.8-43.2,44
				c-22.4-0.8-40-20.8-40-41.6c0-13.6,10.4-28,16.8-33.6s5.6-13.6,6.4-24c0.8-10.4-10.4-28.8-15.2-37.6
				c-4.8-8.8-25.6-24.8-33.6-31.2c-8-6.4-10.4-4-17.6,2.4c-7.2,6.4-5.6,10.4,0.8,15.2c16,15.2,17.6,23.2,16.8,29.6l-2.4,32.8
				c-0.8,7.2-2.4,14.4-9.6,20.8c-7.2,6.4-24,24-32,28.8c-8,4.8-9.6,4-16-4s-6.4-10.4-0.8-14.4c5.6-4,19.2-14.4,28.8-26.4
				c5.6-7.2,4-12.8,5.6-28c1.6-12.8-0.8-16-10.4-25.6c-2.4-2.4-6.4-0.8-11.2,4c-4.8,4.8-11.2,0-19.2-6.4c-8-6.4-3.2-10.4,1.6-16
				c4.8-5.6,8-8,0-13.6c-8-5.6-45.6-42.4-52.8-48.8c-7.2-6.4-36-34.4-41.6-44c-5.6-9.6-32.8-32.8-40-40
				c-7.2-7.2-22.4-20.8-25.6-31.2c-3.2-10.4,14.4-28.8,21.6-32c7.2-3.2,24.8,1.6,34.4,0c9.6-1.6,4-6.4,0.8-11.2
				c-3.2-4.8-10.4-16.8-16.8-24c-6.4-7.2-16-46.4-19.2-54.4c-3.2-8,14.4-18.4,23.2-16s36,4.8,48,8c12,3.2,28.8,15.2,34.4,21.6
				c5.6,6.4,6.4,0,7.2-13.6s4-18.4,13.6-18.4c9.6,0,81.6-2.4,91.2-4c9.6-1.6,12.8,3.2,20.8,7.2s8.8,8.8,1.6,15.2
				c-7.2,6.4-11.2,4-15.2,0.8c-4-3.2-8,0-14.4,0S248.2,79,240.2,79s-12.8-2.4-15.2,4c-2.4,6.4-0.8,10.4-1.6,18.4
				c-0.8,8-25.6,16.8-30.4,11.2c-4.8-5.6-19.2-12.8-28.8-19.2c-9.6-6.4-28.8-7.2-38.4-9.6c-9.6-2.4-7.2,2.4-4.8,14.4
				c4,20.8,10.4,28.8,36,60.8c6.4,8-6.4,28.8-12.8,28.8s-23.2,1.6-35.2,0c-8.8-0.8-7.2,5.6-4,12.8c3.2,7.2,19.2,20,27.2,28.8
				c10.4,11.2,50.4,52.8,57.6,62.4c7.2,9.6,49.6,49.6,56,56c6.4,6.4,8,4.8,12.8-1.6c4.8-6.4,3.2-8-2.4-14.4
				c-5.6-6.4-52-50.4-60.8-60S173.8,231,169,217.4c-4.8-13.6,3.2-43.2,7.2-52c8.8-18.4,21.6-29.6,29.6-32c9.6-2.4,12-5.6,17.6-14.4
				c4.8-8,17.6-17.6,32.8-17.6c25.6,0,41.6,19.2,41.6,40c0,16-10.4,34.4-18.4,36.8c-12.8,4-15.2,7.2-17.6,16.8
				c-4.8,21.6,4,34.4,10.4,48c6.4,13.6,28,28,35.2,36c7.2,8,9.6,7.2,16,0c6.4-7.2,4-8,0.8-12.8c-3.2-4.8-12.8-8.8-17.6-16.8
				c-8-12.8-8.8-55.2-2.4-63.2s40.8-35.2,45.6-40c4.8-4.8,8.8-8,17.6-1.6c7.2,5.6,9.6,12,4,16c-5.6,4-31.2,28-37.6,32
				s-7.2,8-7.2,27.2s5.6,21.6,12,28.8s10.4,4,14.4,0s8.8-5.6,16,0.8c7.2,6.4,5.6,10.4-0.8,16.8s0.8,11.2,9.6,17.6
				c8.8,6.4,69.6,52.8,77.6,62.4s65.6,51.2,75.2,56c9.6,4.8,12.8,14.4,16,23.2C549.8,434.2,538.6,453.4,531.4,454.2z M162.6,522.2
				c-7.2,6.4-9.6,7.2-15.2,1.6l-24-26.4c-6.4-5.6-4.8-12,1.6-17.6c8.8-7.2,9.6-7.2,16-0.8c6.4,6.4,20,20.8,25.6,28.8
				C172.2,515.8,169.8,515.8,162.6,522.2z M167.4,574.2c-6.4,6.4-35.2,4-41.6-4.8c-5.6-8-4.8-8,2.4-13.6c7.2-5.6,13.6-10.4,17.6-3.2
				c2.4,4,5.6,0,12-5.6l20.8-20c6.4-6.4,10.4-5.6,16.8,0.8s9.6,11.2,1.6,16.8S173.8,567.8,167.4,574.2z M219.4,453.4
				c-2.4-4.8-4-1.6-8.8,2.4L185,481.4c-6.4,6.4-14.4,6.4-18.4,0.8c-7.2-8.8-7.2-13.6-0.8-17.6s26.4-27.2,34.4-33.6
				c5.6-4.8,22.4-8,31.2-0.8s8,14.4,0,20S221,456.6,219.4,453.4z M249.8,256.6c-2.4-7.2-19.2-39.2-16-48.8c7.2-22.4,9.6-28,0.8-31.2
				c-13.6-4.8-10.4-20-17.6-20c-6.4,0-14.4,5.6-17.6,15.2c-3.2,9.6-8.8,25.6-4.8,39.2c4,13.6,11.2,39.2,19.2,47.2l57.6,54.4
				c8,8,12.8,10.4,19.2,3.2c7.2-8.8,11.2-12,1.6-18.4C282.6,291,252.2,263.8,249.8,256.6z M295.4,526.2c-18.4,12-50.4,40.8-58.4,48
				c-8,7.2-32.8,4.8-37.6-1.6c-4.8-6.4-4.8-8.8,1.6-13.6c8.8-7.2,11.2-8,12.8-6.4c4,4,8,4,14.4-2.4l40.8-36.8
				c6.4-5.6,3.2-7.2-0.8-11.2s-1.6-5.6,8-12.8c8.8-6.4,8.8-5.6,20,4C304.2,500.6,304.2,520.6,295.4,526.2z M234.6,526.2
				c-6.4,4.8-11.2,4.8-17.6-2.4c-7.2-8-14.4-12.8-18.4-17.6c-4-4.8-2.4-10.4,2.4-14.4c6.4-5.6,7.2-7.2,14.4,0l20.8,20.8
				C241.8,518.2,241,521.4,234.6,526.2z M257,123.8c-10.4,0-20,8.8-20,20.8c0,12,8,19.2,20,19.2c12,0,20-8.8,19.2-20.8
				C275.4,131,271.4,123.8,257,123.8z M407.4,413.4c-4-9.6-12-27.2-19.2-32L329,331.8c-8-6.4-12.8-10.4-20.8-2.4
				c-6.4,6.4-6.4,9.6,1.6,16c8,6.4,40,31.2,43.2,39.2s16.8,32,16,40.8c-0.8,8.8-6.4,20.8,0,21.6c12.8,1.6,16.8,10.4,22.4,10.4
				s12-6.4,16-16C411.4,431,411.4,423,407.4,413.4z M391.4,75.8c-5.6-4-6.4,1.6-11.2,6.4s-40.8,36-46.4,39.2c-5.6,3.2-4,6.4,0,10.4
				c4,4,2.4,8-4.8,12c-7.2,4-7.2,4.8-15.2-2.4c-10.4-9.6-9.6-28.8-3.2-33.6s52.8-40.8,60.8-51.2c5.6-7.2,29.6-3.2,35.2,1.6
				c5.6,4.8,6.4,8.8,0,15.2S397,79.8,391.4,75.8z M359.4,467c-12.8,0-20,8.8-20,20c0,11.2,6.4,20.8,19.2,20.8s23.2-10.4,21.6-20.8
				C378.6,476.6,373.8,467,359.4,467z M404.2,141.4c-5.6,4.8-12,6.4-16,0.8c-4-5.6-12.8-13.6-20-18.4c-7.2-4.8,0.8-10.4,6.4-16
				c6.4-6.4,10.4-2.4,16,2.4l19.2,15.2C416.2,131,409.8,136.6,404.2,141.4z M406.6,206.2c-7.2,7.2-20,9.6-36-4.8
				c-8-7.2-5.6-11.2,0.8-16.8s9.6-6.4,15.2-2.4c5.6,4,4.8,0,10.4-3.2c5.6-3.2,21.6-19.2,28-25.6c6.4-6.4,9.6-7.2,16.8-2.4
				c9.6,6.4,8,13.6,1.6,20.8L406.6,206.2z M479.4,74.2c-6.4,6.4-13.6,5.6-16.8,2.4c-3.2-3.2-4-0.8-8.8,2.4
				c-4.8,3.2-19.2,19.2-25.6,25.6s-12.8,4-18.4-2.4c-7.2-8.8-4-10.4,0.8-16l34.4-32c5.6-5.6,28,0,35.2,6.4
				C487.4,67,485.8,67.8,479.4,74.2z M467.4,149.4l-24.8-21.6c-5.6-4.8-4.8-8.8-0.8-13.6c5.6-6.4,11.2-9.6,18.4-3.2
				c7.2,6.4,15.2,15.2,23.2,20c8,4.8,4.8,13.6,0.8,18.4C477.8,156.6,473.8,155,467.4,149.4z M541,154.2l-48.8,47.2
				c-8,7.2-20,8-35.2-3.2c-5.6-4-6.4-8.8-1.6-16c5.6-8,6.4-7.2,12.8-2.4s6.4,2.4,12-1.6c5.6-4,36-35.2,40.8-40.8s4.8-6.4,1.6-9.6
				c-3.2-3.2-1.6-6.4,4.8-12.8c6.4-6.4,9.6-5.6,20,4.8S547.4,148.6,541,154.2z M533,84.6l-29.6,27.2c-6.4,7.2-12,6.4-17.6,0.8
				c-8-7.2-8.8-11.2-4-17.6c4.8-6.4,25.6-22.4,31.2-28.8c7.2-8.8,14.4-8,22.4,0C543.4,74.2,539.4,79.8,533,84.6z M530.6,211.8
				c-12-12-9.6-14.4-4.8-20.8c8-9.6,8.8-8.8,20.8,4c12,12.8,11.2,11.2,4.8,19.2S542.6,223.8,530.6,211.8z"/>
			<radialGradient id="SVGID_2_" cx="841.9103" cy="317.9458" r="260.9328" gradientUnits="userSpaceOnUse">
				<stop  offset="0" style="stop-color:#6D6E71"/>
				<stop  offset="1" style="stop-color:#414042"/>
			</radialGradient>
			<path class="st1" d="M974.6,619c-32.8,4-96.8-1.6-140,0.8c-20,1.6-84-4-132-3.2c-51.2,0.8-72.8-63.2-71.2-91.2
				c1.6-25.6-2.4-188,0-227.2c2.4-36.8,1.6-184.8,0.8-211.2c-1.6-49.6,22.4-68.8,62.4-71.2c24-1.6,72,3.2,95.2,1.6
				c24-2.4,37.6,24,36.8,40c-1.6,28-1.6,96,0,140c1.6,52.8-6.4,159.2-1.6,188.8c2.4,15.2,5.6,19.2,21.6,19.2c16,0,20-1.6,16-34.4
				c-1.6-10.4,4-97.6,0-141.6c-4.8-48.8-5.6-136-4-172c1.6-28,15.2-38.4,49.6-41.6c18.4-1.6,62.4,4,82.4,1.6c44-5.6,54.4,28,60,80
				c3.2,31.2-1.6,216-1.6,240c0,24,5.6,133.6,4,191.2C1051.4,600.6,1010.6,615,974.6,619z M1022.6,337.4c0-28,5.6-200,1.6-236
				s-11.2-61.6-33.6-60c-22.4,1.6-54.4-3.2-72-1.6c-22.4,1.6-34.4,6.4-35.2,25.6s1.6,137.6,5.6,176c4,40-2.4,132,0,152
				c1.6,16-10.4,35.2-30.4,35.2h-28c-20,0-28.8-19.2-32-39.2c-4.8-28.8,3.2-140,1.6-180s-1.6-112,0-140c0.8-16-9.6-29.6-25.6-28
				c-15.2,1.6-52.8-0.8-72,0c-30.4,1.6-44.8,12-44,48c0.8,36,4,172.8,0,212c-4,40,2.4,177.6-0.8,212c-3.2,32,20.8,80,56.8,79.2
				c19.2-0.8,88,5.6,120,3.2s108,0.8,132-2.4c32-4,60-20,60-64C1026.6,484.6,1022.6,365.4,1022.6,337.4z"/>
			<radialGradient id="SVGID_3_" cx="1289.7556" cy="317.3698" r="261.9882" gradientUnits="userSpaceOnUse">
				<stop  offset="0" style="stop-color:#6D6E71"/>
				<stop  offset="1" style="stop-color:#414042"/>
			</radialGradient>
			<path class="st2" d="M1470.6,618.2c-20-1.6-91.2,0.8-128-0.8c-20-0.8-33.6-14.4-33.6-28c0-24,1.6-32-22.4-104c-4-12-8-20-12-18.4
				c-8,3.2-4,5.6-4,18.4c0,48.8,5.6,80.8,5.6,100.8c0,20-13.6,36-31.2,34.4c-26.4-2.4-102.4-4-126.4-2.4
				c-20,1.6-41.6-15.2-41.6-36.8c0-14.4,2.4-41.6,3.2-56c0.8-16,0-204-0.8-234.4c-0.8-29.6,4.8-159.2,4.8-204s30.4-69.6,62.4-69.6
				c34.4,0,104-4,120-3.2c62.4,3.2,78.4-1.6,140,1.6c42.4,1.6,79.2,33.6,77.6,98.4c-0.8,27.2,3.2,112.8,5.6,135.2
				c3.2,32-6.4,56-23.2,76c-20,24-20,24-20,36s0,16,12,28c7.2,7.2,14.4,20,16,36c4,36,16,63.2,20,100c3.2,27.2,8,44,8,64
				C1502.6,605.4,1493,619.8,1470.6,618.2z M1470.6,537.4c-4-36-20.8-96-24-116c-3.2-20-24-28-24-44v-28c0-14.4,5.6-16,20-36
				c12-16,25.6-30.4,22.4-56c-3.2-25.6-8.8-98.4-6.4-140c2.4-44-18.4-74.4-60-76c-41.6-1.6-80.8,4-128,0c-24-2.4-88,0-120,0
				c-20,0-40,12-40,48c0,40-6.4,174.4-5.6,200c0.8,28,3.2,208,1.6,228c-0.8,14.4-4,32-4,48s4,29.6,20,28c32-2.4,84,0,104,1.6
				c16,1.6,24-4.8,24-17.6c0-20-5.6-52-5.6-100c0-20,2.4-27.2,13.6-32l16-6.4c14.4-5.6,23.2,11.2,32,30.4c8,17.6,9.6,24,22.4,68
				c4.8,16.8,5.6,32.8,5.6,44c0,10.4,5.6,11.2,20,12c16,0.8,70.4-1.6,88,0c17.6,1.6,33.6-0.8,33.6-12
				C1476.2,570.2,1473,556.6,1470.6,537.4z M1310.6,283c-11.2,15.2-24,22.4-40,22.4c-28,0-33.6-8-32-32c1.6-24-2.4-56-1.6-72
				c0.8-12.8,14.4-22.4,26.4-23.2c16-0.8,19.2-2.4,35.2-0.8c20.8,2.4,28,12,28,28c0,12-1.6,16.8,0,32
				C1329,256.6,1326.6,261.4,1310.6,283z M1281.8,199c-15.2,0.8-16.8,5.6-18.4,17.6c-1.6,11.2,1.6,29.6,0.8,44.8
				c-0.8,16.8,0.8,20,10.4,20c8,0,12-8,24-23.2c6.4-8,1.6-20.8,1.6-43.2C1300.2,207,1298.6,198.2,1281.8,199z"/>
			<radialGradient id="SVGID_4_" cx="1667.3516" cy="316.017" r="239.6638" gradientUnits="userSpaceOnUse">
				<stop  offset="0" style="stop-color:#6D6E71"/>
				<stop  offset="1" style="stop-color:#414042"/>
			</radialGradient>
			<path class="st3" d="M1818.5,461.4c0.8,16-8,36-36,36c-10.4,0-20-4-32-4c-15.2,0-21.6,4-21.6,16c0,32,5.6,40,5.6,72
				c0,20-12,37.6-48,36c-42.4-1.6-92,2.4-124,0c-36-2.4-44-24-44-80c0-120-4.8-228-4.8-276c0-48,4.8-116,7.2-172
				c2.4-52,17.6-72.8,53.6-72c32,0.8,64-4.8,92-3.2c20,0.8,60,3.2,72,3.2c36,0,72.8,24,72.8,60c0,12,7.2,40,3.2,80
				c-1.6,12,2.4,24,2.4,36c0,16-10.4,37.6-38.4,34.4c-16-1.6-16-3.2-36-1.6c-16,1.6-20,3.2-20,27.2c0,28,0,32,20,33.6
				c20,1.6,28-1.6,40.8-1.6c19.2,0,37.6,24,37.6,41.6C1820.9,357.4,1816.1,369.4,1818.5,461.4z M1770.6,309.4
				c-17.6,0-25.6,2.4-40,1.6c-26.4-0.8-35.2-6.4-35.2-61.6c0-44,7.2-44,35.2-46.4c20-1.6,30.4-0.8,38.4-0.8c12,0,20-5.6,20-17.6
				c0-12.8-3.2-20.8-2.4-31.2c2.4-32-1.6-47.2-1.6-64c0-28-30.4-48-50.4-48c-28,0-51.2,0.8-72-2.4c-20.8-3.2-50.4,4-79.2,3.2
				c-23.2-0.8-30.4,6.4-35.2,51.2c-4.8,44.8-6.4,116-6.4,168c0,48,3.2,164,3.2,272c0,56,7.2,59.2,25.6,60c36,1.6,76-1.6,116,0
				c14.4,0.8,20-4,20-20c0-25.6-5.6-47.2-5.6-71.2s13.6-34.4,33.6-34.4c16,0,22.4,3.2,38.4,3.2c14.4,0,18.4-12.8,17.6-28.8
				c-3.2-60,1.6-83.2,1.6-108C1792.1,317.4,1786.5,309.4,1770.6,309.4z"/>
			<radialGradient id="SVGID_5_" cx="2277.979" cy="316.1673" r="297.9509" gradientUnits="userSpaceOnUse">
				<stop  offset="0" style="stop-color:#6D6E71"/>
				<stop  offset="1" style="stop-color:#414042"/>
			</radialGradient>
			<path class="st4" d="M2567.3,553.4c-0.8,36-32.8,64.8-80.8,64.8c-32,0-100-3.2-138.4-1.6c-5.6,0.8-32.8,2.4-63.2,2.4
				c-31.2-0.8-66.4-1.6-90.4-2.4c-52-2.4-128,0-148,1.6c-24,1.6-56-12.8-56-36.8c0-18.4-5.6-55.2-4-84c1.6-28.8,4.8-72,3.2-103.2
				c-0.8-14.4,19.2-28.8,32-28.8s86.4,21.6,96.8,26.4c18.4,8,26.4,8,31.2,0c4-6.4,4.8-15.2-13.6-28.8
				c-45.6-35.2-75.2-73.6-103.2-95.2c-44-34.4-48-58.4-48-122.4c0-20,5.6-44,5.6-72s40-57.6,72-56c26.4,1.6,120-0.8,320-4
				c24,0,72,4,107.2,3.2c36.8-0.8,76.8,24.8,76.8,48.8s2.4,44,4,72c1.6,32-1.6,80,0,100c1.6,20-20,37.6-32,37.6
				c-12,0-96-21.6-120-33.6c-13.6-7.2-24-7.2-28.8,0.8c-5.6,8.8-4,16,8.8,23.2c28,16,116,84,138.4,97.6c19.2,12,34.4,46.4,33.6,66.4
				C2569.7,448.6,2567.3,537.4,2567.3,553.4z M2544.9,145.4c0-24-6.4-52.8-6.4-72c0-16.8-24.8-32-52-32c-18.4,0-84-4-104-4
				c-173.6,0-268,4.8-304,4c-42.4-0.8-60,18.4-60,36c0,20.8-6.4,48-6.4,80c0,35.2,2.4,61.6,36.8,88.8
				c33.6,26.4,73.6,77.6,113.6,107.2c24,17.6,16.8,32,6.4,52s-27.2,22.4-42.4,16c-40-16-64-21.6-84-24.8c-16-2.4-24,8.8-24,28.8
				c0,16.8-4,41.6-4,82.4c0,25.6,4,52,4,61.6c0,12,9.6,24,32,24c20.8,0,99.2-4,136-1.6c43.2,3.2,148.8,5.6,161.6,4.8
				c32-2.4,121.6-2.4,130.4-3.2c40-4,60-20,60-44c0-16,3.2-90.4,4-108c0.8-17.6-4-47.2-32-64c-34.4-20.8-88-68-116-85.6
				c-37.6-24-47.2-37.6-24-62.4c17.6-19.2,35.2-17.6,48-12c36,16,97.6,32,108,32c10.4,0,21.6-11.2,20-24
				C2544.9,212.6,2544.9,169.4,2544.9,145.4z M2107.4,453.4c-4.8-4-6.4-2.4-12.8,1.6c-6.4,4-29.6,35.2-35.2,39.2
				c-5.6,4-3.2,6.4,1.6,10.4c4.8,4,0,6.4-8,13.6c-8,7.2-8,4-17.6-3.2c-9.6-7.2-3.2-31.2,4-35.2c7.2-4,38.4-42.4,48-52
				c5.6-5.6,22.4-3.2,32.8,7.2c10.4,10.4,8,12,2.4,18.4C2117,459.8,2112.2,457.4,2107.4,453.4z M2056.2,438.2
				c-8,6.4-11.2,7.2-18.4-2.4c-5.6-8-6.4-11.2-0.8-16.8c8.8-8.8,13.6-8,22.4,0C2068.2,427,2064.2,431.8,2056.2,438.2z M2065,571
				c-8,8-16,4-23.2-2.4c-7.2-6.4-4.8-12.8,3.2-16.8s24-25.6,32.8-32c8.8-6.4,8.8-6.4,16.8,1.6c5.6,5.6,9.6,10.4,2.4,17.6L2065,571z
				 M2503.3,454.2c-7.2,0.8-29.6,4.8-38.4,4c-8.8-0.8-8.8,4.8-3.2,8.8c5.6,4,29.6,21.6,31.2,29.6s17.6,47.2,20,56.8
				c2.4,9.6-13.6,21.6-22.4,21.6s-45.6-5.6-55.2-5.6c-9.6,0-18.4-7.2-28.8-16.8c-8.8-8-14.4-8.8-17.6,1.6
				c-3.2,10.4-8,20.8-19.2,20.8s-93.6,0-100.8,0.8c-7.2,0.8-14.4-3.2-20.8-6.4c-6.4-3.2-0.8-7.2,4.8-12.8c5.6-5.6,7.2-8,12.8-5.6
				c5.6,2.4,8,1.6,14.4,1.6c13.6,0.8,64,0,72.8,0s10.4,0,13.6-6.4c3.2-6.4,4.8-12.8,6.4-20.8c1.6-8,17.6-10.4,24-7.2
				c6.4,3.2,27.2,20,35.2,24.8c8,4.8,36.8,7.2,45.6,7.2s8.8-3.2,6.4-8.8c-2.4-5.6-12-28.8-16-36.8c-4-8-38.4-33.6-44.8-40
				c-6.4-6.4,0.8-25.6,9.6-26.4s40-2.4,48-2.4c7.2,0,13.6-10.4,6.4-14.4c-7.2-4-24.8-16-34.4-22.4c-9.6-6.4-51.2-41.6-57.6-48
				c-6.4-6.4-56-44-64-51.2s-10.4-8-17.6-1.6s-4.8,9.6,3.2,17.6c8,8,56,43.2,64,51.2s23.2,36,26.4,44.8s-2.4,30.4-4,39.2
				c-1.6,8.8-12.8,19.2-22.4,23.2c-9.6,4-7.2,4.8-6.4,12c1.6,20-15.2,44.8-43.2,44c-22.4-0.8-40-20.8-40-41.6
				c0-13.6,10.4-28,16.8-33.6c6.4-5.6,5.6-13.6,6.4-24c0.8-10.4-10.4-28.8-15.2-37.6c-4.8-8.8-25.6-24.8-33.6-31.2
				c-8-6.4-10.4-4-17.6,2.4c-7.2,6.4-5.6,10.4,0.8,15.2c16,15.2,17.6,23.2,16.8,29.6l-2.4,32.8c-0.8,7.2-2.4,14.4-9.6,20.8
				c-7.2,6.4-24,24-32,28.8c-8,4.8-9.6,4-16-4c-6.4-8-6.4-10.4-0.8-14.4c5.6-4,19.2-14.4,28.8-26.4c5.6-7.2,4-12.8,5.6-28
				c1.6-12.8-0.8-16-10.4-25.6c-2.4-2.4-6.4-0.8-11.2,4c-4.8,4.8-11.2,0-19.2-6.4c-8-6.4-3.2-10.4,1.6-16s8-8,0-13.6
				c-8-5.6-45.6-42.4-52.8-48.8c-7.2-6.4-36-34.4-41.6-44c-5.6-9.6-32.8-32.8-40-40c-7.2-7.2-22.4-20.8-25.6-31.2
				c-3.2-10.4,14.4-28.8,21.6-32c7.2-3.2,24.8,1.6,34.4,0s4-6.4,0.8-11.2s-10.4-16.8-16.8-24c-6.4-7.2-16-46.4-19.2-54.4
				c-3.2-8,14.4-18.4,23.2-16s36,4.8,48,8c12,3.2,28.8,15.2,34.4,21.6c5.6,6.4,6.4,0,7.2-13.6s4-18.4,13.6-18.4s81.6-2.4,91.2-4
				c9.6-1.6,12.8,3.2,20.8,7.2c8,4,8.8,8.8,1.6,15.2s-11.2,4-15.2,0.8c-4-3.2-8,0-14.4,0c-6.4,0-51.2,2.4-59.2,2.4s-12.8-2.4-15.2,4
				c-2.4,6.4-0.8,10.4-1.6,18.4s-25.6,16.8-30.4,11.2c-4.8-5.6-19.2-12.8-28.8-19.2s-28.8-7.2-38.4-9.6c-9.6-2.4-7.2,2.4-4.8,14.4
				c4,20.8,10.4,28.8,36,60.8c6.4,8-6.4,28.8-12.8,28.8c-6.4,0-23.2,1.6-35.2,0c-8.8-0.8-7.2,5.6-4,12.8c3.2,7.2,19.2,20,27.2,28.8
				c10.4,11.2,50.4,52.8,57.6,62.4c7.2,9.6,49.6,49.6,56,56c6.4,6.4,8,4.8,12.8-1.6c4.8-6.4,3.2-8-2.4-14.4
				c-5.6-6.4-52-50.4-60.8-60s-21.6-40.8-26.4-54.4c-4.8-13.6,3.2-43.2,7.2-52c8.8-18.4,21.6-29.6,29.6-32c9.6-2.4,12-5.6,17.6-14.4
				c4.8-8,17.6-17.6,32.8-17.6c25.6,0,41.6,19.2,41.6,40c0,16-10.4,34.4-18.4,36.8c-12.8,4-15.2,7.2-17.6,16.8
				c-4.8,21.6,4,34.4,10.4,48c6.4,13.6,28,28,35.2,36c7.2,8,9.6,7.2,16,0c6.4-7.2,4-8,0.8-12.8c-3.2-4.8-12.8-8.8-17.6-16.8
				c-8-12.8-8.8-55.2-2.4-63.2c6.4-8,40.8-35.2,45.6-40s8.8-8,17.6-1.6c7.2,5.6,9.6,12,4,16s-31.2,28-37.6,32s-7.2,8-7.2,27.2
				s5.6,21.6,12,28.8c6.4,7.2,10.4,4,14.4,0c4-4,8.8-5.6,16,0.8c7.2,6.4,5.6,10.4-0.8,16.8c-6.4,6.4,0.8,11.2,9.6,17.6
				s69.6,52.8,77.6,62.4c8,9.6,65.6,51.2,75.2,56c9.6,4.8,12.8,14.4,16,23.2S2510.5,453.4,2503.3,454.2z M2134.6,522.2
				c-7.2,6.4-9.6,7.2-15.2,1.6l-24-26.4c-6.4-5.6-4.8-12,1.6-17.6c8.8-7.2,9.6-7.2,16-0.8c6.4,6.4,20,20.8,25.6,28.8
				S2141.8,515.8,2134.6,522.2z M2139.4,574.2c-6.4,6.4-35.2,4-41.6-4.8c-5.6-8-4.8-8,2.4-13.6c7.2-5.6,13.6-10.4,17.6-3.2
				c2.4,4,5.6,0,12-5.6l20.8-20c6.4-6.4,10.4-5.6,16.8,0.8c6.4,6.4,9.6,11.2,1.6,16.8S2145.7,567.8,2139.4,574.2z M2191.3,453.4
				c-2.4-4.8-4-1.6-8.8,2.4l-25.6,25.6c-6.4,6.4-14.4,6.4-18.4,0.8c-7.2-8.8-7.2-13.6-0.8-17.6c6.4-4,26.4-27.2,34.4-33.6
				c5.6-4.8,22.4-8,31.2-0.8s8,14.4,0,20S2192.9,456.6,2191.3,453.4z M2221.7,256.6c-2.4-7.2-19.2-39.2-16-48.8
				c7.2-22.4,9.6-28,0.8-31.2c-13.6-4.8-10.4-20-17.6-20c-6.4,0-14.4,5.6-17.6,15.2c-3.2,9.6-8.8,25.6-4.8,39.2
				c4,13.6,11.2,39.2,19.2,47.2l57.6,54.4c8,8,12.8,10.4,19.2,3.2c7.2-8.8,11.2-12,1.6-18.4S2224.1,263.8,2221.7,256.6z
				 M2267.3,526.2c-18.4,12-50.4,40.8-58.4,48s-32.8,4.8-37.6-1.6c-4.8-6.4-4.8-8.8,1.6-13.6c8.8-7.2,11.2-8,12.8-6.4
				c4,4,8,4,14.4-2.4l40.8-36.8c6.4-5.6,3.2-7.2-0.8-11.2s-1.6-5.6,8-12.8c8.8-6.4,8.8-5.6,20,4
				C2276.1,500.6,2276.1,520.6,2267.3,526.2z M2206.5,526.2c-6.4,4.8-11.2,4.8-17.6-2.4c-7.2-8-14.4-12.8-18.4-17.6
				s-2.4-10.4,2.4-14.4c6.4-5.6,7.2-7.2,14.4,0l20.8,20.8C2213.7,518.2,2212.9,521.4,2206.5,526.2z M2228.9,123.8
				c-10.4,0-20,8.8-20,20.8c0,12,8,19.2,20,19.2s20-8.8,19.2-20.8C2247.3,131,2243.3,123.8,2228.9,123.8z M2379.3,413.4
				c-4-9.6-12-27.2-19.2-32l-59.2-49.6c-8-6.4-12.8-10.4-20.8-2.4c-6.4,6.4-6.4,9.6,1.6,16c8,6.4,40,31.2,43.2,39.2
				c3.2,8,16.8,32,16,40.8s-6.4,20.8,0,21.6c12.8,1.6,16.8,10.4,22.4,10.4c5.6,0,12-6.4,16-16C2383.3,431,2383.3,423,2379.3,413.4z
				 M2363.3,75.8c-5.6-4-6.4,1.6-11.2,6.4s-40.8,36-46.4,39.2c-5.6,3.2-4,6.4,0,10.4c4,4,2.4,8-4.8,12s-7.2,4.8-15.2-2.4
				c-10.4-9.6-9.6-28.8-3.2-33.6c6.4-4.8,52.8-40.8,60.8-51.2c5.6-7.2,29.6-3.2,35.2,1.6s6.4,8.8,0,15.2
				C2372.1,79.8,2368.9,79.8,2363.3,75.8z M2331.3,467c-12.8,0-20,8.8-20,20c0,11.2,6.4,20.8,19.2,20.8s23.2-10.4,21.6-20.8
				C2350.5,476.6,2345.7,467,2331.3,467z M2376.1,141.4c-5.6,4.8-12,6.4-16,0.8c-4-5.6-12.8-13.6-20-18.4c-7.2-4.8,0.8-10.4,6.4-16
				c6.4-6.4,10.4-2.4,16,2.4l19.2,15.2C2388.1,131,2381.7,136.6,2376.1,141.4z M2378.5,206.2c-7.2,7.2-20,9.6-36-4.8
				c-8-7.2-5.6-11.2,0.8-16.8c6.4-5.6,9.6-6.4,15.2-2.4c5.6,4,4.8,0,10.4-3.2c5.6-3.2,21.6-19.2,28-25.6c6.4-6.4,9.6-7.2,16.8-2.4
				c9.6,6.4,8,13.6,1.6,20.8L2378.5,206.2z M2451.3,74.2c-6.4,6.4-13.6,5.6-16.8,2.4c-3.2-3.2-4-0.8-8.8,2.4
				c-4.8,3.2-19.2,19.2-25.6,25.6c-6.4,6.4-12.8,4-18.4-2.4c-7.2-8.8-4-10.4,0.8-16l34.4-32c5.6-5.6,28,0,35.2,6.4
				C2459.3,67,2457.7,67.8,2451.3,74.2z M2439.3,149.4l-24.8-21.6c-5.6-4.8-4.8-8.8-0.8-13.6c5.6-6.4,11.2-9.6,18.4-3.2
				c7.2,6.4,15.2,15.2,23.2,20c8,4.8,4.8,13.6,0.8,18.4C2449.7,156.6,2445.7,155,2439.3,149.4z M2512.9,154.2l-48.8,47.2
				c-8,7.2-20,8-35.2-3.2c-5.6-4-6.4-8.8-1.6-16c5.6-8,6.4-7.2,12.8-2.4c6.4,4.8,6.4,2.4,12-1.6c5.6-4,36-35.2,40.8-40.8
				s4.8-6.4,1.6-9.6c-3.2-3.2-1.6-6.4,4.8-12.8c6.4-6.4,9.6-5.6,20,4.8S2519.3,148.6,2512.9,154.2z M2504.9,84.6l-29.6,27.2
				c-6.4,7.2-12,6.4-17.6,0.8c-8-7.2-8.8-11.2-4-17.6s25.6-22.4,31.2-28.8c7.2-8.8,14.4-8,22.4,0
				C2515.3,74.2,2511.3,79.8,2504.9,84.6z M2502.5,211.8c-12-12-9.6-14.4-4.8-20.8c8-9.6,8.8-8.8,20.8,4s11.2,11.2,4.8,19.2
				S2514.5,223.8,2502.5,211.8z"/>
			<radialGradient id="SVGID_6_" cx="2750.5449" cy="317.0777" r="241.5357" gradientUnits="userSpaceOnUse">
				<stop  offset="0" style="stop-color:#6D6E71"/>
				<stop  offset="1" style="stop-color:#414042"/>
			</radialGradient>
			<path class="st5" d="M2890.5,241.4c-12,0-16-2.4-28-2.4c-8,0-15.2,7.2-15.2,14.4c0,12,6.4,71.2,7.2,84c0.8,20,8,128,8,156
				c0,48,8,77.6,8,96c0,12-11.2,26.4-25.6,28c-42.4,4-78.4-2.4-98.4-0.8c-16,1.6-40,4.8-90.4,0.8c-12.8-0.8-25.6-16-25.6-32
				c0-16,4-32,4-96c0-28,8-124,8-140c0-24,6.4-84,6.4-96c0-7.2-6.4-14.4-14.4-14.4s-12,2.4-20,2.4c-16,0-23.2-12.8-23.2-32
				c0-44,5.6-70.4,5.6-98.4c0-12,5.6-57.6,5.6-69.6s11.2-28,32-26.4c20,1.6,24.8,3.2,48,2.4c38.4-1.6,60,0,120,0h25.6
				c7.2,0,14.4-0.8,26.4-1.6c24-1.6,44,17.6,44,33.6c0,28,8,55.2,8,104c0,16,3.2,32,3.2,56.8
				C2909.7,222.2,2906.5,241.4,2890.5,241.4z M2881.7,145.4c0-36-8-67.2-8-80c0-16-13.6-25.6-34.4-24c-44,4-68-1.6-96-1.6
				c-27.2,0-44,4.8-92,1.6c-12.8-0.8-22.4,4-22.4,16c0,9.6-5.6,34.4-5.6,52c0,20-6.4,52-6.4,84c0,12.8,0.8,24,10.4,24
				c8,0,12.8-2.4,23.2-2.4c12,0,24,22.4,24,30.4c0,16-7.2,123.2-8.8,144c-1.6,20.8-5.6,76-5.6,104c0,44-2.4,64-2.4,80
				c0,12.8,8,19.2,21.6,20c24,1.6,44.8,2.4,72,0c28-2.4,41.6,3.2,68,0c20-2.4,24.8-4,24.8-20c0-16-6.4-36-6.4-68c0-28-8-133.6-8-148
				c0-14.4-7.2-76-7.2-112c0-12,15.2-30.4,28-30.4c8,0,12.8,1.6,24.8,1.6c8,0,10.4-2.4,10.4-15.2S2881.7,175.8,2881.7,145.4z"/>
			<radialGradient id="SVGID_7_" cx="3110.5381" cy="316.3563" r="265.9793" gradientUnits="userSpaceOnUse">
				<stop  offset="0" style="stop-color:#6D6E71"/>
				<stop  offset="1" style="stop-color:#414042"/>
			</radialGradient>
			<path class="st6" d="M3286.5,618.2c-24-1.6-76-1.6-120-0.8c-24,0.8-40-8-40-20c0-20,0-48-4-80c-1.6-15.2-4-18.4-16-18.4
				c-12,0-13.6,10.4-16,30.4c-2.4,21.6,0,40,0,60c0,16-24,28.8-44,28c-16-2.4-99.2,0-124,0c-20,0-36-8-36-28c0-16,1.6-18.4,4-40
				c5.6-53.6,12.8-144,24-256c12-116,12.8-152,16-196c1.6-20,4-28,4-44c0-24,20-36,56-36c28,0,92-3.2,116-3.2c16,0,112,3.2,128,3.2
				c32,0,50.4,12.8,50.4,36c0,16,3.2,31.2,5.6,52c4,36,4,80,12,152c15.2,140,17.6,206.4,24,260c4,32,8,40,8,72
				C3334.5,617.4,3312.1,619.8,3286.5,618.2z M3298.5,505.4c-8-52-6.4-107.2-21.6-236c-7.2-61.6-8-124-12-156
				c-1.6-15.2-6.4-41.6-6.4-52c0-12-8-20-32-20c-36,0-114.4-2.4-128-2.4s-92,2.4-112,2.4c-16,0-24.8,6.4-25.6,18.4
				c-0.8,8-4.8,29.6-4.8,45.6c0,24-3.2,68-15.2,184c-9.6,95.2-18.4,200-22.4,240c-2.4,22.4-5.6,40-5.6,48c0,8,4.8,16.8,16.8,16
				c10.4-0.8,96.8-2.4,112.8,0c11.2,1.6,22.4-7.2,22.4-16s-0.8-44,2.4-68c3.2-24,15.2-32,27.2-32h24c16,0,23.2,8,28,32
				c8,40,5.6,56.8,5.6,68c0,11.2,2.4,16.8,14.4,16c24-0.8,76-2.4,112,0c21.6,1.6,29.6-4,29.6-12
				C3308.1,561.4,3304.9,545.4,3298.5,505.4z M3140.9,341.4c-4.8,7.2-13.6,12-22.4,12h-28c-8,0-15.2-0.8-20-8c-8-11.2-8-16-8-32
				c0-16,8.8-72,11.2-88.8c2.4-17.6,13.6-19.2,28.8-19.2c17.6,0,28,4,30.4,20c2.4,16,14.4,72,14.4,88
				C3147.3,329.4,3146.5,332.6,3140.9,341.4z M3102.5,229.4c-12,0-10.4,36-16,83.2c-1.6,12.8,4,16.8,16,16.8c16,0,20-4,17.6-19.2
				C3113.7,265.4,3114.5,229.4,3102.5,229.4z"/>
			<radialGradient id="SVGID_8_" cx="3470.5352" cy="317.0777" r="241.5357" gradientUnits="userSpaceOnUse">
				<stop  offset="0" style="stop-color:#6D6E71"/>
				<stop  offset="1" style="stop-color:#414042"/>
			</radialGradient>
			<path class="st7" d="M3610.5,241.4c-12,0-16-2.4-28-2.4c-8,0-15.2,7.2-15.2,14.4c0,12,6.4,71.2,7.2,84c0.8,20,8,128,8,156
				c0,48,8,77.6,8,96c0,12-11.2,26.4-25.6,28c-42.4,4-78.4-2.4-98.4-0.8c-16,1.6-40,4.8-90.4,0.8c-12.8-0.8-25.6-16-25.6-32
				c0-16,4-32,4-96c0-28,8-124,8-140c0-24,6.4-84,6.4-96c0-7.2-6.4-14.4-14.4-14.4s-12,2.4-20,2.4c-16,0-23.2-12.8-23.2-32
				c0-44,5.6-70.4,5.6-98.4c0-12,5.6-57.6,5.6-69.6s11.2-28,32-26.4c20,1.6,24.8,3.2,48,2.4c38.4-1.6,60,0,120,0h25.6
				c7.2,0,14.4-0.8,26.4-1.6c24-1.6,44,17.6,44,33.6c0,28,8,55.2,8,104c0,16,3.2,32,3.2,56.8
				C3629.7,222.2,3626.5,241.4,3610.5,241.4z M3601.7,145.4c0-36-8-67.2-8-80c0-16-13.6-25.6-34.4-24c-44,4-68-1.6-96-1.6
				c-27.2,0-44,4.8-92,1.6c-12.8-0.8-22.4,4-22.4,16c0,9.6-5.6,34.4-5.6,52c0,20-6.4,52-6.4,84c0,12.8,0.8,24,10.4,24
				c8,0,12.8-2.4,23.2-2.4c12,0,24,22.4,24,30.4c0,16-7.2,123.2-8.8,144c-1.6,20.8-5.6,76-5.6,104c0,44-2.4,64-2.4,80
				c0,12.8,8,19.2,21.6,20c24,1.6,44.8,2.4,72,0c28-2.4,41.6,3.2,68,0c20-2.4,24.8-4,24.8-20c0-16-6.4-36-6.4-68c0-28-8-133.6-8-148
				c0-14.4-7.2-76-7.2-112c0-12,15.2-30.4,28-30.4c8,0,12.8,1.6,24.8,1.6c8,0,10.4-2.4,10.4-15.2S3601.7,175.8,3601.7,145.4z"/>
			<radialGradient id="SVGID_9_" cx="3778.6157" cy="316.8301" r="236.5151" gradientUnits="userSpaceOnUse">
				<stop  offset="0" style="stop-color:#6D6E71"/>
				<stop  offset="1" style="stop-color:#414042"/>
			</radialGradient>
			<path class="st8" d="M3917.7,545.4c-0.8,36-31.2,70.4-75.2,72.8c-16,0.8-43.2,0.8-81.6-0.8c-34.4-1.6-54.4-0.8-74.4,0.8
				c-24,1.6-48-16.8-48-36.8c0-18.4-4-51.2-2.4-80c1.6-24,3.2-44,1.6-72c-0.8-14.4,7.2-26.4,20-26.4c8.8,0,12.8,4,16.8,4
				c8,0,12-9.6,12-17.6s-4-16.8-12-40c-16-46.4-16.8-68-24-92c-14.4-48-16-68-16-104c0-20,4-45.6,4-72c0-28,32-65.6,68-64
				c28,1.6,44-2.4,72-2.4c24,0,64,2.4,76,2.4c32.8,0,60,16,60,40c0,20,8,54.4,8,82.4c0,32-2.4,41.6,0,62.4c1.6,13.6-8,31.2-20,31.2
				s-16-4-20-4c-8,0-16,4-16,12c0,12,3.2,20,8,32c16,44,12,52,32,96c8.8,19.2,16.8,76,16,96C3921.7,484.6,3917.7,529.4,3917.7,545.4
				z M3878.5,369.4c-16.8-36.8-16-48-36-108c-5.6-17.6-8-32,8-44c16.8-12,16.8-12.8,36.8-9.6c8,1.6,11.2-6.4,9.6-18.4
				c-2.4-20.8,0-31.2,0-48s-8-43.2-8-64c0-24-18.4-36-42.4-36c-20.8,0-44-0.8-68-0.8c-16,0-36,2.4-60.8,0.8
				c-27.2-1.6-52.8,16-52.8,44s-4.8,56-4.8,72c0,20,2.4,48,14.4,84c8,24,16,74.4,32,120c7.2,20.8,12,36,0,52
				c-14.4,19.2-20,23.2-31.2,18.4c-7.2-3.2-10.4,1.6-11.2,21.6c-0.8,16,0,41.6-1.6,64c-1.6,22.4,1.6,34.4,1.6,52
				c0,16,10.4,22.4,26.4,24c20.8,2.4,37.6-1.6,68,0c30.4,1.6,56,1.6,80,0c24-1.6,53.6-24,53.6-52c0-19.2,4-44.8,4.8-68
				C3897.7,445.4,3888.9,392.6,3878.5,369.4z"/>
		</g>
	</g>
</g>
</svg>
